<svg id="svg" version="1.1" xmlns="http://www.w3.org/2000/svg" xmlns:xlink="http://www.w3.org/1999/xlink" width="400" height="400" viewBox="0, 0, 400,400"><g id="svgg"><path id="path0" d="M182.000 13.576 C 182.000 14.276,182.849 14.483,184.628 14.217 C 187.110 13.844,186.839 13.200,184.200 13.200 C 182.990 13.200,182.000 13.369,182.000 13.576 M214.000 13.575 C 214.000 14.034,217.355 14.580,218.195 14.257 C 219.572 13.729,218.674 13.200,216.400 13.200 C 215.080 13.200,214.000 13.369,214.000 13.575 M174.800 14.357 C 174.800 14.913,175.963 15.225,177.032 14.956 C 178.548 14.576,178.167 14.000,176.400 14.000 C 175.520 14.000,174.800 14.161,174.800 14.357 M222.800 14.368 C 222.800 14.833,225.041 15.345,225.590 15.006 C 226.471 14.461,225.925 14.000,224.400 14.000 C 223.520 14.000,222.800 14.166,222.800 14.368 M169.200 15.176 C 169.200 15.804,169.907 16.039,170.982 15.769 C 172.463 15.397,172.228 14.800,170.600 14.800 C 169.830 14.800,169.200 14.969,169.200 15.176 M229.200 15.173 C 229.200 15.659,230.676 16.124,231.196 15.802 C 231.988 15.313,231.581 14.800,230.400 14.800 C 229.740 14.800,229.200 14.968,229.200 15.173 M165.300 16.100 C 165.392 16.375,165.707 16.600,166.000 16.600 C 166.293 16.600,166.608 16.375,166.700 16.100 C 166.799 15.803,166.516 15.600,166.000 15.600 C 165.484 15.600,165.201 15.803,165.300 16.100 M233.600 15.957 C 233.600 16.424,234.768 16.867,235.236 16.578 C 235.941 16.142,235.588 15.600,234.600 15.600 C 234.050 15.600,233.600 15.761,233.600 15.957 M161.300 16.900 C 161.392 17.175,161.707 17.400,162.000 17.400 C 162.293 17.400,162.608 17.175,162.700 16.900 C 162.799 16.603,162.516 16.400,162.000 16.400 C 161.484 16.400,161.201 16.603,161.300 16.900 M237.600 16.757 C 237.600 17.224,238.768 17.667,239.236 17.378 C 239.941 16.942,239.588 16.400,238.600 16.400 C 238.050 16.400,237.600 16.561,237.600 16.757 M157.200 17.600 C 157.200 17.820,157.560 18.000,158.000 18.000 C 158.440 18.000,158.800 17.820,158.800 17.600 C 158.800 17.380,158.440 17.200,158.000 17.200 C 157.560 17.200,157.200 17.380,157.200 17.600 M241.600 17.600 C 241.600 17.820,241.870 18.000,242.200 18.000 C 242.530 18.000,242.800 17.820,242.800 17.600 C 242.800 17.380,242.530 17.200,242.200 17.200 C 241.870 17.200,241.600 17.380,241.600 17.600 M154.000 18.400 C 154.000 18.620,154.371 18.800,154.824 18.800 C 155.277 18.800,155.536 18.620,155.400 18.400 C 155.264 18.180,154.893 18.000,154.576 18.000 C 154.259 18.000,154.000 18.180,154.000 18.400 M244.800 18.357 C 244.800 18.824,245.968 19.267,246.436 18.978 C 247.141 18.542,246.788 18.000,245.800 18.000 C 245.250 18.000,244.800 18.161,244.800 18.357 M150.900 19.300 C 150.992 19.575,151.307 19.800,151.600 19.800 C 151.893 19.800,152.208 19.575,152.300 19.300 C 152.399 19.003,152.116 18.800,151.600 18.800 C 151.084 18.800,150.801 19.003,150.900 19.300 M248.500 19.300 C 248.592 19.575,248.907 19.800,249.200 19.800 C 249.493 19.800,249.808 19.575,249.900 19.300 C 249.999 19.003,249.716 18.800,249.200 18.800 C 248.684 18.800,248.401 19.003,248.500 19.300 M147.600 19.976 C 147.600 20.551,148.255 20.831,148.964 20.559 C 149.941 20.184,149.719 19.600,148.600 19.600 C 148.050 19.600,147.600 19.769,147.600 19.976 M251.200 20.000 C 251.200 20.220,251.470 20.400,251.800 20.400 C 252.130 20.400,252.400 20.220,252.400 20.000 C 252.400 19.780,252.130 19.600,251.800 19.600 C 251.470 19.600,251.200 19.780,251.200 20.000 M145.200 20.800 C 145.200 21.020,145.470 21.200,145.800 21.200 C 146.130 21.200,146.400 21.020,146.400 20.800 C 146.400 20.580,146.130 20.400,145.800 20.400 C 145.470 20.400,145.200 20.580,145.200 20.800 M254.100 20.900 C 254.192 21.175,254.507 21.400,254.800 21.400 C 255.093 21.400,255.408 21.175,255.500 20.900 C 255.599 20.603,255.316 20.400,254.800 20.400 C 254.284 20.400,254.001 20.603,254.100 20.900 M142.100 21.700 C 142.192 21.975,142.507 22.200,142.800 22.200 C 143.093 22.200,143.408 21.975,143.500 21.700 C 143.599 21.403,143.316 21.200,142.800 21.200 C 142.284 21.200,142.001 21.403,142.100 21.700 M256.877 21.630 C 256.955 21.867,257.191 22.060,257.400 22.060 C 257.609 22.060,257.845 21.867,257.923 21.630 C 258.002 21.394,257.767 21.200,257.400 21.200 C 257.033 21.200,256.798 21.394,256.877 21.630 M139.700 22.500 C 139.792 22.775,140.107 23.000,140.400 23.000 C 140.693 23.000,141.008 22.775,141.100 22.500 C 141.199 22.203,140.916 22.000,140.400 22.000 C 139.884 22.000,139.601 22.203,139.700 22.500 M259.277 22.430 C 259.356 22.666,259.591 22.860,259.800 22.860 C 260.009 22.860,260.245 22.666,260.323 22.430 C 260.402 22.194,260.167 22.000,259.800 22.000 C 259.433 22.000,259.198 22.194,259.277 22.430 M137.200 23.200 C 137.200 23.420,137.560 23.600,138.000 23.600 C 138.440 23.600,138.800 23.420,138.800 23.200 C 138.800 22.980,138.440 22.800,138.000 22.800 C 137.560 22.800,137.200 22.980,137.200 23.200 M261.300 23.300 C 261.392 23.575,261.707 23.800,262.000 23.800 C 262.293 23.800,262.608 23.575,262.700 23.300 C 262.799 23.003,262.516 22.800,262.000 22.800 C 261.484 22.800,261.201 23.003,261.300 23.300 M263.700 24.100 C 263.792 24.375,264.107 24.600,264.400 24.600 C 264.693 24.600,265.008 24.375,265.100 24.100 C 265.199 23.803,264.916 23.600,264.400 23.600 C 263.884 23.600,263.601 23.803,263.700 24.100 M133.200 24.800 C 133.200 25.020,133.470 25.200,133.800 25.200 C 134.130 25.200,134.400 25.020,134.400 24.800 C 134.400 24.580,134.130 24.400,133.800 24.400 C 133.470 24.400,133.200 24.580,133.200 24.800 M130.900 25.700 C 130.992 25.975,131.307 26.200,131.600 26.200 C 131.893 26.200,132.208 25.975,132.300 25.700 C 132.399 25.403,132.116 25.200,131.600 25.200 C 131.084 25.200,130.801 25.403,130.900 25.700 M268.000 25.600 C 268.000 25.820,268.270 26.000,268.600 26.000 C 268.930 26.000,269.200 25.820,269.200 25.600 C 269.200 25.380,268.930 25.200,268.600 25.200 C 268.270 25.200,268.000 25.380,268.000 25.600 M129.200 26.400 C 129.200 26.620,129.470 26.800,129.800 26.800 C 130.130 26.800,130.400 26.620,130.400 26.400 C 130.400 26.180,130.130 26.000,129.800 26.000 C 129.470 26.000,129.200 26.180,129.200 26.400 M272.000 27.433 C 272.000 28.140,272.861 28.017,273.108 27.275 C 273.195 27.014,272.982 26.800,272.633 26.800 C 272.285 26.800,272.000 27.085,272.000 27.433 M125.277 28.030 C 125.356 28.267,125.591 28.460,125.800 28.460 C 126.009 28.460,126.245 28.267,126.323 28.030 C 126.402 27.794,126.167 27.600,125.800 27.600 C 125.433 27.600,125.198 27.794,125.277 28.030 M123.600 28.800 C 123.600 29.020,123.870 29.200,124.200 29.200 C 124.530 29.200,124.800 29.020,124.800 28.800 C 124.800 28.580,124.530 28.400,124.200 28.400 C 123.870 28.400,123.600 28.580,123.600 28.800 M277.300 29.700 C 277.392 29.975,277.707 30.200,278.000 30.200 C 278.293 30.200,278.608 29.975,278.700 29.700 C 278.799 29.403,278.516 29.200,278.000 29.200 C 277.484 29.200,277.201 29.403,277.300 29.700 M119.600 30.629 C 119.600 31.002,119.872 31.206,120.267 31.129 C 121.270 30.935,121.408 30.000,120.433 30.000 C 119.942 30.000,119.600 30.258,119.600 30.629 M279.200 30.633 C 279.200 31.340,280.061 31.217,280.308 30.475 C 280.395 30.214,280.182 30.000,279.833 30.000 C 279.485 30.000,279.200 30.285,279.200 30.633 M118.092 31.275 C 118.339 32.017,119.200 32.140,119.200 31.433 C 119.200 31.085,118.915 30.800,118.567 30.800 C 118.218 30.800,118.005 31.014,118.092 31.275 M280.877 31.230 C 280.955 31.467,281.191 31.660,281.400 31.660 C 281.609 31.660,281.845 31.467,281.923 31.230 C 282.002 30.994,281.767 30.800,281.400 30.800 C 281.033 30.800,280.798 30.994,280.877 31.230 M116.400 32.000 C 116.400 32.220,116.670 32.400,117.000 32.400 C 117.330 32.400,117.600 32.220,117.600 32.000 C 117.600 31.780,117.330 31.600,117.000 31.600 C 116.670 31.600,116.400 31.780,116.400 32.000 M282.477 32.030 C 282.555 32.267,282.791 32.460,283.000 32.460 C 283.209 32.460,283.445 32.267,283.523 32.030 C 283.602 31.794,283.367 31.600,283.000 31.600 C 282.633 31.600,282.398 31.794,282.477 32.030 M114.892 32.875 C 115.139 33.617,116.000 33.740,116.000 33.033 C 116.000 32.685,115.715 32.400,115.367 32.400 C 115.018 32.400,114.805 32.614,114.892 32.875 M284.000 32.800 C 284.000 33.020,284.270 33.200,284.600 33.200 C 284.930 33.200,285.200 33.020,285.200 32.800 C 285.200 32.580,284.930 32.400,284.600 32.400 C 284.270 32.400,284.000 32.580,284.000 32.800 M113.200 33.800 C 113.200 34.130,113.470 34.400,113.800 34.400 C 114.130 34.400,114.400 34.130,114.400 33.800 C 114.400 33.470,114.130 33.200,113.800 33.200 C 113.470 33.200,113.200 33.470,113.200 33.800 M285.600 33.600 C 285.600 33.820,285.870 34.000,286.200 34.000 C 286.530 34.000,286.800 33.820,286.800 33.600 C 286.800 33.380,286.530 33.200,286.200 33.200 C 285.870 33.200,285.600 33.380,285.600 33.600 M111.600 34.400 C 111.600 34.620,111.870 34.800,112.200 34.800 C 112.530 34.800,112.800 34.620,112.800 34.400 C 112.800 34.180,112.530 34.000,112.200 34.000 C 111.870 34.000,111.600 34.180,111.600 34.400 M287.200 34.400 C 287.200 34.620,287.470 34.800,287.800 34.800 C 288.130 34.800,288.400 34.620,288.400 34.400 C 288.400 34.180,288.130 34.000,287.800 34.000 C 287.470 34.000,287.200 34.180,287.200 34.400 M288.877 35.230 C 288.955 35.467,289.191 35.660,289.400 35.660 C 289.609 35.660,289.845 35.467,289.923 35.230 C 290.002 34.994,289.767 34.800,289.400 34.800 C 289.033 34.800,288.798 34.994,288.877 35.230 M290.400 36.200 C 290.400 36.530,290.670 36.800,291.000 36.800 C 291.330 36.800,291.600 36.530,291.600 36.200 C 291.600 35.870,291.330 35.600,291.000 35.600 C 290.670 35.600,290.400 35.870,290.400 36.200 M106.077 37.630 C 106.156 37.867,106.391 38.060,106.600 38.060 C 106.809 38.060,107.044 37.867,107.123 37.630 C 107.202 37.394,106.967 37.200,106.600 37.200 C 106.233 37.200,105.998 37.394,106.077 37.630 M104.400 38.600 C 104.400 38.930,104.670 39.200,105.000 39.200 C 105.330 39.200,105.600 38.930,105.600 38.600 C 105.600 38.270,105.330 38.000,105.000 38.000 C 104.670 38.000,104.400 38.270,104.400 38.600 M294.400 38.400 C 294.400 38.620,294.670 38.800,295.000 38.800 C 295.330 38.800,295.600 38.620,295.600 38.400 C 295.600 38.180,295.330 38.000,295.000 38.000 C 294.670 38.000,294.400 38.180,294.400 38.400 M296.000 39.056 C 296.000 39.368,297.282 40.370,297.703 40.387 C 297.870 40.394,297.782 40.040,297.507 39.600 C 297.042 38.855,296.000 38.479,296.000 39.056 M100.060 41.042 C 99.762 41.378,99.612 41.745,99.725 41.859 C 100.019 42.153,101.600 41.248,101.600 40.786 C 101.600 40.199,100.668 40.354,100.060 41.042 M298.477 40.830 C 298.555 41.067,298.791 41.260,299.000 41.260 C 299.209 41.260,299.445 41.067,299.523 40.830 C 299.602 40.594,299.367 40.400,299.000 40.400 C 298.633 40.400,298.398 40.594,298.477 40.830 M98.000 42.400 C 98.000 42.620,98.270 42.800,98.600 42.800 C 98.930 42.800,99.200 42.620,99.200 42.400 C 99.200 42.180,98.930 42.000,98.600 42.000 C 98.270 42.000,98.000 42.180,98.000 42.400 M300.800 42.400 C 300.800 42.620,301.070 42.800,301.400 42.800 C 301.730 42.800,302.000 42.620,302.000 42.400 C 302.000 42.180,301.730 42.000,301.400 42.000 C 301.070 42.000,300.800 42.180,300.800 42.400 M95.600 44.233 C 95.600 44.940,96.461 44.817,96.708 44.075 C 96.795 43.814,96.582 43.600,96.233 43.600 C 95.885 43.600,95.600 43.885,95.600 44.233 M93.200 45.833 C 93.200 46.540,94.061 46.417,94.308 45.675 C 94.395 45.414,94.182 45.200,93.833 45.200 C 93.485 45.200,93.200 45.485,93.200 45.833 M90.493 47.600 C 90.218 48.040,90.097 48.400,90.223 48.400 C 90.746 48.400,92.000 47.544,92.000 47.186 C 92.000 46.503,91.008 46.775,90.493 47.600 M308.077 47.230 C 308.156 47.467,308.391 47.660,308.600 47.660 C 308.809 47.660,309.045 47.467,309.123 47.230 C 309.202 46.994,308.967 46.800,308.600 46.800 C 308.233 46.800,307.998 46.994,308.077 47.230 M310.490 48.871 C 310.707 49.520,311.902 50.231,312.228 49.905 C 312.555 49.578,311.434 48.400,310.795 48.400 C 310.541 48.400,310.404 48.612,310.490 48.871 M87.260 49.842 C 86.962 50.178,86.812 50.545,86.925 50.659 C 87.219 50.953,88.800 50.048,88.800 49.586 C 88.800 48.999,87.868 49.154,87.260 49.842 M313.600 51.186 C 313.600 51.655,315.183 52.551,315.482 52.251 C 315.760 51.974,314.585 50.800,314.029 50.800 C 313.793 50.800,313.600 50.974,313.600 51.186 M84.093 52.400 C 83.818 52.840,83.697 53.200,83.823 53.200 C 84.346 53.200,85.600 52.344,85.600 51.986 C 85.600 51.303,84.608 51.575,84.093 52.400 M316.800 53.714 C 316.800 54.281,319.128 55.806,319.470 55.463 C 319.747 55.187,317.770 53.200,317.218 53.200 C 316.988 53.200,316.800 53.431,316.800 53.714 M80.860 54.642 C 80.562 54.978,80.412 55.345,80.525 55.459 C 80.819 55.753,82.400 54.848,82.400 54.386 C 82.400 53.799,81.468 53.954,80.860 54.642 M322.492 58.476 C 322.717 59.150,324.737 60.596,325.036 60.297 C 325.347 59.987,323.400 58.000,322.785 58.000 C 322.537 58.000,322.405 58.214,322.492 58.476 M74.860 59.851 C 74.343 60.402,74.031 60.964,74.166 61.100 C 74.464 61.397,76.484 59.947,76.708 59.276 C 76.983 58.451,75.839 58.807,74.860 59.851 M331.200 66.456 C 331.200 66.921,332.358 67.964,332.900 67.987 C 333.397 68.008,333.238 67.181,332.629 66.571 C 331.942 65.885,331.200 65.825,331.200 66.456 M59.065 75.759 C 57.307 77.420,56.748 78.400,57.559 78.400 C 57.863 78.400,58.868 77.325,60.854 74.874 C 61.889 73.597,60.766 74.153,59.065 75.759 M339.600 74.968 C 339.600 75.256,339.740 75.445,341.628 77.700 C 342.318 78.525,343.044 79.200,343.241 79.200 C 343.957 79.200,343.572 78.346,342.290 77.087 C 340.586 75.413,339.600 74.636,339.600 74.968 M53.700 81.798 C 52.736 82.893,53.304 83.736,54.320 82.720 C 54.851 82.189,54.970 81.191,54.500 81.215 C 54.335 81.224,53.975 81.486,53.700 81.798 M345.200 81.423 C 345.200 81.946,346.056 83.200,346.414 83.200 C 347.097 83.200,346.825 82.208,346.000 81.693 C 345.560 81.418,345.200 81.297,345.200 81.423 M51.499 84.977 C 50.747 85.527,50.555 86.400,51.186 86.400 C 51.580 86.400,52.573 84.839,52.332 84.598 C 52.259 84.525,51.884 84.696,51.499 84.977 M348.400 85.426 C 348.400 85.947,349.258 87.200,349.614 87.200 C 350.184 87.200,350.083 86.426,349.429 85.771 C 348.837 85.180,348.400 85.033,348.400 85.426 M48.400 89.033 C 48.400 89.382,48.614 89.595,48.875 89.508 C 49.617 89.261,49.740 88.400,49.033 88.400 C 48.685 88.400,48.400 88.685,48.400 89.033 M350.800 88.626 C 350.800 89.147,351.658 90.400,352.014 90.400 C 352.584 90.400,352.483 89.626,351.829 88.971 C 351.237 88.380,350.800 88.233,350.800 88.626 M46.500 91.398 C 45.905 92.074,45.846 92.800,46.386 92.800 C 46.742 92.800,47.600 91.547,47.600 91.026 C 47.600 90.619,47.010 90.819,46.500 91.398 M353.357 92.233 C 353.491 92.581,353.600 93.031,353.600 93.233 C 353.600 93.435,353.870 93.600,354.200 93.600 C 354.958 93.600,354.972 92.915,354.229 92.171 C 353.473 91.416,353.055 91.445,353.357 92.233 M44.400 94.600 C 44.400 94.967,44.594 95.202,44.830 95.123 C 45.067 95.044,45.260 94.809,45.260 94.600 C 45.260 94.391,45.067 94.156,44.830 94.077 C 44.594 93.998,44.400 94.233,44.400 94.600 M355.292 95.275 C 355.539 96.017,356.400 96.140,356.400 95.433 C 356.400 95.085,356.115 94.800,355.767 94.800 C 355.418 94.800,355.205 95.014,355.292 95.275 M357.078 97.456 C 356.758 97.775,357.119 98.400,357.624 98.400 C 357.831 98.400,358.000 98.130,358.000 97.800 C 358.000 97.181,357.528 97.005,357.078 97.456 M41.200 99.400 C 41.200 99.767,41.394 100.002,41.630 99.923 C 41.867 99.844,42.060 99.609,42.060 99.400 C 42.060 99.191,41.867 98.956,41.630 98.877 C 41.394 98.798,41.200 99.033,41.200 99.400 M358.492 100.075 C 358.739 100.817,359.600 100.940,359.600 100.233 C 359.600 99.885,359.315 99.600,358.967 99.600 C 358.618 99.600,358.405 99.814,358.492 100.075 M39.600 101.800 C 39.600 102.167,39.794 102.402,40.030 102.323 C 40.267 102.245,40.460 102.009,40.460 101.800 C 40.460 101.591,40.267 101.356,40.030 101.277 C 39.794 101.198,39.600 101.433,39.600 101.800 M37.200 105.800 C 37.200 106.167,37.394 106.402,37.630 106.323 C 37.867 106.245,38.060 106.009,38.060 105.800 C 38.060 105.591,37.867 105.356,37.630 105.277 C 37.394 105.198,37.200 105.433,37.200 105.800 M362.400 106.600 C 362.400 106.930,362.670 107.200,363.000 107.200 C 363.330 107.200,363.600 106.930,363.600 106.600 C 363.600 106.270,363.330 106.000,363.000 106.000 C 362.670 106.000,362.400 106.270,362.400 106.600 M363.478 107.856 C 363.158 108.175,363.519 108.800,364.024 108.800 C 364.231 108.800,364.400 108.530,364.400 108.200 C 364.400 107.581,363.928 107.405,363.478 107.856 M34.800 109.800 C 34.800 110.130,35.070 110.400,35.400 110.400 C 35.730 110.400,36.000 110.130,36.000 109.800 C 36.000 109.470,35.730 109.200,35.400 109.200 C 35.070 109.200,34.800 109.470,34.800 109.800 M34.000 111.400 C 34.000 111.767,34.194 112.002,34.430 111.923 C 34.667 111.844,34.860 111.609,34.860 111.400 C 34.860 111.191,34.667 110.956,34.430 110.877 C 34.194 110.798,34.000 111.033,34.000 111.400 M365.878 111.856 C 365.558 112.175,365.919 112.800,366.424 112.800 C 366.631 112.800,366.800 112.530,366.800 112.200 C 366.800 111.581,366.328 111.405,365.878 111.856 M33.200 113.000 C 33.200 113.330,33.380 113.600,33.600 113.600 C 33.820 113.600,34.000 113.330,34.000 113.000 C 34.000 112.670,33.820 112.400,33.600 112.400 C 33.380 112.400,33.200 112.670,33.200 113.000 M366.678 113.456 C 366.358 113.775,366.719 114.400,367.224 114.400 C 367.431 114.400,367.600 114.130,367.600 113.800 C 367.600 113.181,367.128 113.005,366.678 113.456 M32.400 114.600 C 32.400 114.930,32.580 115.200,32.800 115.200 C 33.020 115.200,33.200 114.930,33.200 114.600 C 33.200 114.270,33.020 114.000,32.800 114.000 C 32.580 114.000,32.400 114.270,32.400 114.600 M367.478 115.056 C 367.158 115.375,367.519 116.000,368.024 116.000 C 368.231 116.000,368.400 115.730,368.400 115.400 C 368.400 114.781,367.928 114.605,367.478 115.056 M368.278 116.656 C 367.958 116.975,368.319 117.600,368.824 117.600 C 369.031 117.600,369.200 117.330,369.200 117.000 C 369.200 116.381,368.728 116.205,368.278 116.656 M369.200 118.600 C 369.200 118.930,369.380 119.200,369.600 119.200 C 369.820 119.200,370.000 118.930,370.000 118.600 C 370.000 118.270,369.820 118.000,369.600 118.000 C 369.380 118.000,369.200 118.270,369.200 118.600 M369.878 119.856 C 369.558 120.175,369.919 120.800,370.424 120.800 C 370.631 120.800,370.800 120.530,370.800 120.200 C 370.800 119.581,370.328 119.405,369.878 119.856 M370.667 121.467 C 370.206 121.927,370.375 122.400,371.000 122.400 C 371.330 122.400,371.600 122.130,371.600 121.800 C 371.600 121.175,371.127 121.006,370.667 121.467 M28.400 122.600 C 28.400 122.930,28.580 123.200,28.800 123.200 C 29.020 123.200,29.200 122.930,29.200 122.600 C 29.200 122.270,29.020 122.000,28.800 122.000 C 28.580 122.000,28.400 122.270,28.400 122.600 M371.400 123.200 C 371.108 123.672,371.487 124.400,372.024 124.400 C 372.231 124.400,372.400 124.040,372.400 123.600 C 372.400 122.756,371.818 122.524,371.400 123.200 M27.600 124.167 C 27.600 124.515,27.885 124.800,28.233 124.800 C 28.940 124.800,28.817 123.939,28.075 123.692 C 27.814 123.605,27.600 123.818,27.600 124.167 M26.800 126.000 C 26.800 126.440,26.980 126.800,27.200 126.800 C 27.420 126.800,27.600 126.440,27.600 126.000 C 27.600 125.560,27.420 125.200,27.200 125.200 C 26.980 125.200,26.800 125.560,26.800 126.000 M372.400 125.800 C 372.400 126.130,372.580 126.400,372.800 126.400 C 373.020 126.400,373.200 126.130,373.200 125.800 C 373.200 125.470,373.020 125.200,372.800 125.200 C 372.580 125.200,372.400 125.470,372.400 125.800 M373.067 127.067 C 372.606 127.527,372.775 128.000,373.400 128.000 C 373.730 128.000,374.000 127.730,374.000 127.400 C 374.000 126.775,373.527 126.606,373.067 127.067 M26.000 128.200 C 26.000 128.530,26.180 128.800,26.400 128.800 C 26.620 128.800,26.800 128.530,26.800 128.200 C 26.800 127.870,26.620 127.600,26.400 127.600 C 26.180 127.600,26.000 127.870,26.000 128.200 M25.200 129.767 C 25.200 130.115,25.485 130.400,25.833 130.400 C 26.540 130.400,26.417 129.539,25.675 129.292 C 25.414 129.205,25.200 129.418,25.200 129.767 M374.678 131.056 C 374.358 131.375,374.719 132.000,375.224 132.000 C 375.431 132.000,375.600 131.730,375.600 131.400 C 375.600 130.781,375.128 130.605,374.678 131.056 M24.400 132.200 C 24.400 132.530,24.580 132.800,24.800 132.800 C 25.020 132.800,25.200 132.530,25.200 132.200 C 25.200 131.870,25.020 131.600,24.800 131.600 C 24.580 131.600,24.400 131.870,24.400 132.200 M23.600 134.000 C 23.600 134.516,23.803 134.799,24.100 134.700 C 24.375 134.608,24.600 134.293,24.600 134.000 C 24.600 133.707,24.375 133.392,24.100 133.300 C 23.803 133.201,23.600 133.484,23.600 134.000 M375.600 133.800 C 375.600 134.130,375.780 134.400,376.000 134.400 C 376.220 134.400,376.400 134.130,376.400 133.800 C 376.400 133.470,376.220 133.200,376.000 133.200 C 375.780 133.200,375.600 133.470,375.600 133.800 M376.200 135.200 C 375.908 135.672,376.287 136.400,376.824 136.400 C 377.031 136.400,377.200 136.040,377.200 135.600 C 377.200 134.756,376.618 134.524,376.200 135.200 M22.800 136.200 C 22.800 136.567,22.994 136.802,23.230 136.723 C 23.466 136.644,23.660 136.409,23.660 136.200 C 23.660 135.991,23.466 135.756,23.230 135.677 C 22.994 135.598,22.800 135.833,22.800 136.200 M377.078 137.456 C 376.758 137.775,377.119 138.400,377.624 138.400 C 377.831 138.400,378.000 138.130,378.000 137.800 C 378.000 137.181,377.528 137.005,377.078 137.456 M22.000 138.600 C 22.000 138.930,22.180 139.200,22.400 139.200 C 22.620 139.200,22.800 138.930,22.800 138.600 C 22.800 138.270,22.620 138.000,22.400 138.000 C 22.180 138.000,22.000 138.270,22.000 138.600 M377.878 139.856 C 377.558 140.175,377.919 140.800,378.424 140.800 C 378.631 140.800,378.800 140.530,378.800 140.200 C 378.800 139.581,378.328 139.405,377.878 139.856 M378.800 142.600 C 378.800 142.930,378.980 143.200,379.200 143.200 C 379.420 143.200,379.600 142.930,379.600 142.600 C 379.600 142.270,379.420 142.000,379.200 142.000 C 378.980 142.000,378.800 142.270,378.800 142.600 M20.400 143.400 C 20.400 143.730,20.580 144.000,20.800 144.000 C 21.020 144.000,21.200 143.730,21.200 143.400 C 21.200 143.070,21.020 142.800,20.800 142.800 C 20.580 142.800,20.400 143.070,20.400 143.400 M379.600 145.000 C 379.600 145.330,379.780 145.600,380.000 145.600 C 380.220 145.600,380.400 145.330,380.400 145.000 C 380.400 144.670,380.220 144.400,380.000 144.400 C 379.780 144.400,379.600 144.670,379.600 145.000 M19.600 145.800 C 19.600 146.130,19.780 146.400,20.000 146.400 C 20.220 146.400,20.400 146.130,20.400 145.800 C 20.400 145.470,20.220 145.200,20.000 145.200 C 19.780 145.200,19.600 145.470,19.600 145.800 M380.200 147.200 C 379.908 147.672,380.287 148.400,380.824 148.400 C 381.031 148.400,381.200 148.040,381.200 147.600 C 381.200 146.756,380.618 146.524,380.200 147.200 M18.800 148.400 C 18.800 148.916,19.003 149.199,19.300 149.100 C 19.575 149.008,19.800 148.693,19.800 148.400 C 19.800 148.107,19.575 147.792,19.300 147.700 C 19.003 147.601,18.800 147.884,18.800 148.400 M297.446 150.700 C 295.591 153.564,290.864 158.947,288.200 161.229 C 287.320 161.983,286.353 162.834,286.051 163.121 C 285.749 163.407,284.219 164.584,282.651 165.736 C 280.100 167.610,278.878 168.391,274.600 170.878 C 272.278 172.227,259.484 178.400,259.008 178.400 C 258.905 178.400,257.641 178.940,256.200 179.600 C 254.759 180.260,253.493 180.800,253.386 180.800 C 253.279 180.800,252.338 181.181,251.296 181.647 C 250.253 182.112,248.770 182.763,248.000 183.094 C 245.174 184.307,243.773 184.906,242.600 185.404 C 241.940 185.684,240.360 186.383,239.088 186.957 C 237.817 187.531,236.697 188.000,236.600 188.000 C 235.973 188.000,223.131 194.106,220.000 195.892 C 216.151 198.089,215.248 198.674,213.400 200.172 C 204.628 207.279,201.631 215.379,204.016 225.529 C 204.801 228.872,205.161 230.442,205.981 234.100 C 206.327 235.643,207.172 239.081,207.971 242.200 C 209.119 246.676,212.266 256.026,212.807 256.567 C 214.608 258.368,215.014 248.313,213.387 242.200 C 212.801 240.000,212.227 237.750,212.111 237.200 L 211.899 236.200 212.750 237.083 C 213.217 237.569,213.600 238.059,213.600 238.171 C 213.600 238.988,217.899 245.375,219.517 246.961 C 225.007 252.344,230.838 253.190,238.683 249.742 C 241.165 248.652,241.014 248.254,237.797 247.416 C 234.888 246.658,232.316 244.950,228.400 241.173 C 225.414 238.294,225.170 237.402,227.682 238.546 C 229.486 239.367,232.104 240.199,235.200 240.935 C 246.772 243.686,252.903 242.625,258.788 236.855 C 262.239 233.472,265.276 228.187,263.300 229.004 C 259.912 230.405,253.166 230.726,246.770 229.790 C 242.931 229.228,241.797 229.019,238.100 228.191 C 234.894 227.473,236.723 226.636,242.400 226.222 C 250.630 225.622,261.336 223.707,267.907 221.659 C 273.710 219.851,280.107 215.065,283.491 210.000 C 286.187 205.965,288.800 199.715,288.800 197.302 C 288.800 195.787,288.683 195.745,287.262 196.753 C 284.528 198.693,279.398 201.376,276.600 202.330 C 273.682 203.326,266.607 205.303,263.600 205.964 C 262.390 206.230,259.960 206.787,258.200 207.203 C 256.440 207.618,252.840 208.339,250.200 208.804 C 247.560 209.269,243.902 209.926,242.071 210.263 C 238.657 210.890,238.239 210.878,238.722 210.166 C 239.229 209.418,241.633 208.436,253.900 203.965 C 259.757 201.831,260.661 201.497,261.400 201.199 C 261.840 201.022,263.730 200.299,265.600 199.593 C 267.470 198.888,269.540 198.075,270.200 197.788 C 270.860 197.500,272.840 196.697,274.600 196.004 C 281.630 193.235,287.048 190.269,290.278 187.421 C 298.559 180.119,303.118 165.576,301.006 153.200 C 299.938 146.949,299.895 146.919,297.446 150.700 M99.697 149.900 C 97.813 156.472,98.522 168.452,101.159 174.600 C 105.528 184.786,112.402 191.057,124.200 195.618 C 124.640 195.788,126.710 196.595,128.800 197.412 C 130.890 198.229,133.950 199.399,135.600 200.013 C 143.978 203.127,145.616 203.724,148.200 204.610 C 153.270 206.347,159.579 209.027,160.699 209.921 L 161.800 210.799 160.400 210.614 C 152.170 209.525,135.721 206.170,129.800 204.373 C 122.269 202.087,119.403 200.897,114.330 197.951 C 110.464 195.705,110.287 196.223,112.725 202.652 C 116.354 212.222,121.180 217.117,131.000 221.188 C 132.974 222.006,134.838 222.518,139.800 223.607 C 142.427 224.183,150.218 225.382,155.400 226.007 C 161.722 226.769,162.935 226.991,163.073 227.412 C 163.284 228.057,160.666 228.667,151.967 229.997 C 148.176 230.577,143.455 230.493,140.000 229.782 C 135.700 228.899,135.782 228.899,135.934 229.772 C 136.149 231.011,138.932 234.845,141.055 236.828 C 147.460 242.811,153.613 243.772,166.000 240.723 C 167.870 240.263,170.120 239.571,171.000 239.186 C 175.203 237.348,175.045 238.195,170.423 242.293 C 166.672 245.619,164.544 246.915,161.674 247.620 C 159.489 248.158,159.650 248.714,162.380 250.054 C 171.907 254.731,180.062 250.733,186.366 238.294 C 188.502 234.079,188.607 235.148,186.731 242.000 C 185.964 244.801,185.805 246.335,185.827 250.707 C 185.872 259.875,187.490 258.601,190.790 246.800 C 191.066 245.810,191.439 244.550,191.617 244.000 C 192.106 242.495,195.630 227.814,196.418 224.000 C 199.028 211.380,191.984 201.381,174.600 193.028 C 169.297 190.480,162.084 187.200,161.784 187.200 C 161.602 187.200,160.799 186.855,156.304 184.847 C 155.262 184.381,154.322 184.000,154.216 184.000 C 154.110 184.000,153.073 183.568,151.912 183.039 C 150.750 182.511,148.000 181.320,145.800 180.393 C 143.600 179.466,140.720 178.207,139.400 177.595 C 138.080 176.984,136.100 176.082,135.000 175.592 C 129.783 173.268,124.101 170.258,121.330 168.352 C 120.409 167.718,119.497 167.200,119.303 167.200 C 119.109 167.200,118.602 166.880,118.175 166.489 C 117.749 166.098,116.770 165.336,116.000 164.796 C 111.265 161.475,104.988 154.929,102.550 150.769 C 100.937 148.017,100.293 147.821,99.697 149.900 M381.200 150.200 C 381.200 150.750,381.380 151.200,381.600 151.200 C 381.820 151.200,382.000 150.750,382.000 150.200 C 382.000 149.650,381.820 149.200,381.600 149.200 C 381.380 149.200,381.200 149.650,381.200 150.200 M18.000 151.400 C 18.000 151.730,18.180 152.000,18.400 152.000 C 18.620 152.000,18.800 151.730,18.800 151.400 C 18.800 151.070,18.620 150.800,18.400 150.800 C 18.180 150.800,18.000 151.070,18.000 151.400 M381.822 152.764 C 381.533 153.232,381.976 154.400,382.443 154.400 C 382.639 154.400,382.800 153.950,382.800 153.400 C 382.800 152.412,382.258 152.059,381.822 152.764 M17.200 154.200 C 17.200 154.750,17.361 155.200,17.557 155.200 C 18.024 155.200,18.467 154.032,18.178 153.564 C 17.742 152.859,17.200 153.212,17.200 154.200 M382.622 155.964 C 382.333 156.432,382.776 157.600,383.243 157.600 C 383.439 157.600,383.600 157.150,383.600 156.600 C 383.600 155.612,383.058 155.259,382.622 155.964 M16.400 157.400 C 16.400 157.950,16.561 158.400,16.757 158.400 C 17.224 158.400,17.667 157.232,17.378 156.764 C 16.942 156.059,16.400 156.412,16.400 157.400 M383.352 159.381 C 383.229 159.700,383.246 160.150,383.388 160.381 C 383.854 161.135,384.400 160.821,384.400 159.800 C 384.400 158.716,383.713 158.441,383.352 159.381 M15.600 160.976 C 15.600 161.293,15.780 161.664,16.000 161.800 C 16.220 161.936,16.400 161.677,16.400 161.224 C 16.400 160.771,16.220 160.400,16.000 160.400 C 15.780 160.400,15.600 160.659,15.600 160.976 M384.222 163.164 C 383.933 163.632,384.376 164.800,384.843 164.800 C 385.039 164.800,385.200 164.350,385.200 163.800 C 385.200 162.812,384.658 162.459,384.222 163.164 M14.800 165.200 C 14.800 165.640,14.980 166.000,15.200 166.000 C 15.420 166.000,15.600 165.640,15.600 165.200 C 15.600 164.760,15.420 164.400,15.200 164.400 C 14.980 164.400,14.800 164.760,14.800 165.200 M385.011 167.182 C 384.695 167.693,385.194 169.600,385.643 169.600 C 385.840 169.600,386.000 168.970,386.000 168.200 C 386.000 166.864,385.516 166.365,385.011 167.182 M14.000 169.400 C 14.000 169.950,14.161 170.400,14.357 170.400 C 14.824 170.400,15.267 169.232,14.978 168.764 C 14.542 168.059,14.000 168.412,14.000 169.400 M385.811 172.782 C 385.495 173.293,385.994 175.200,386.443 175.200 C 386.640 175.200,386.800 174.570,386.800 173.800 C 386.800 172.464,386.316 171.965,385.811 172.782 M13.200 174.576 C 13.200 175.333,13.361 176.052,13.557 176.174 C 14.016 176.457,14.475 174.662,14.157 173.832 C 13.735 172.732,13.200 173.148,13.200 174.576 M386.604 179.193 C 386.251 179.765,386.823 182.433,387.244 182.173 C 387.721 181.878,387.702 178.800,387.224 178.800 C 387.017 178.800,386.738 178.977,386.604 179.193 M12.400 181.600 C 12.400 182.700,12.560 183.600,12.755 183.600 C 13.226 183.600,13.684 181.085,13.365 180.254 C 12.873 178.972,12.400 179.632,12.400 181.600 M387.402 187.997 C 387.267 188.215,387.283 190.388,387.437 192.825 C 387.788 198.365,388.385 197.786,388.394 191.900 C 388.399 187.997,388.109 186.853,387.402 187.997 M11.600 199.600 C 11.600 207.590,11.886 209.971,12.548 207.500 C 12.862 206.328,12.862 192.872,12.548 191.700 C 11.886 189.229,11.600 191.610,11.600 199.600 M387.460 205.812 C 387.199 211.563,387.270 212.400,388.024 212.400 C 388.490 212.400,388.521 201.211,388.057 200.478 C 387.868 200.181,387.612 202.467,387.460 205.812 M12.400 217.800 C 12.400 219.509,12.841 220.105,13.416 219.174 C 13.775 218.593,13.257 216.000,12.782 216.000 C 12.572 216.000,12.400 216.810,12.400 217.800 M386.625 219.007 C 386.354 220.450,386.559 221.200,387.224 221.200 C 387.431 221.200,387.600 220.390,387.600 219.400 C 387.600 217.260,386.998 217.017,386.625 219.007 M13.200 225.400 C 13.200 226.763,13.686 227.231,14.214 226.377 C 14.563 225.813,14.088 224.000,13.592 224.000 C 13.377 224.000,13.200 224.630,13.200 225.400 M385.770 225.777 C 385.511 226.809,385.795 227.600,386.424 227.600 C 386.631 227.600,386.800 226.970,386.800 226.200 C 386.800 224.596,386.135 224.323,385.770 225.777 M14.000 230.600 C 14.000 231.588,14.542 231.941,14.978 231.236 C 15.267 230.768,14.824 229.600,14.357 229.600 C 14.161 229.600,14.000 230.050,14.000 230.600 M384.952 230.981 C 384.829 231.300,384.846 231.750,384.988 231.981 C 385.454 232.735,386.000 232.421,386.000 231.400 C 386.000 230.316,385.313 230.041,384.952 230.981 M14.800 235.400 C 14.800 236.388,15.342 236.741,15.778 236.036 C 16.067 235.568,15.624 234.400,15.157 234.400 C 14.961 234.400,14.800 234.850,14.800 235.400 M384.198 235.204 C 383.876 235.724,384.341 237.200,384.827 237.200 C 385.032 237.200,385.200 236.660,385.200 236.000 C 385.200 234.819,384.687 234.412,384.198 235.204 M15.600 239.400 C 15.600 240.388,16.142 240.741,16.578 240.036 C 16.867 239.568,16.424 238.400,15.957 238.400 C 15.761 238.400,15.600 238.850,15.600 239.400 M383.600 239.600 C 383.600 240.040,383.780 240.400,384.000 240.400 C 384.220 240.400,384.400 240.040,384.400 239.600 C 384.400 239.160,384.220 238.800,384.000 238.800 C 383.780 238.800,383.600 239.160,383.600 239.600 M16.400 242.800 C 16.400 243.240,16.580 243.600,16.800 243.600 C 17.020 243.600,17.200 243.240,17.200 242.800 C 17.200 242.360,17.020 242.000,16.800 242.000 C 16.580 242.000,16.400 242.360,16.400 242.800 M382.641 243.036 C 382.369 243.745,382.649 244.400,383.224 244.400 C 383.431 244.400,383.600 243.950,383.600 243.400 C 383.600 242.281,383.016 242.059,382.641 243.036 M17.200 246.000 C 17.200 246.440,17.380 246.800,17.600 246.800 C 17.820 246.800,18.000 246.440,18.000 246.000 C 18.000 245.560,17.820 245.200,17.600 245.200 C 17.380 245.200,17.200 245.560,17.200 246.000 M381.841 246.236 C 381.569 246.945,381.849 247.600,382.424 247.600 C 382.631 247.600,382.800 247.150,382.800 246.600 C 382.800 245.481,382.216 245.259,381.841 246.236 M18.000 249.200 C 18.000 249.716,18.203 249.999,18.500 249.900 C 18.775 249.808,19.000 249.493,19.000 249.200 C 19.000 248.907,18.775 248.592,18.500 248.500 C 18.203 248.401,18.000 248.684,18.000 249.200 M381.200 249.400 C 381.200 249.730,381.380 250.000,381.600 250.000 C 381.820 250.000,382.000 249.730,382.000 249.400 C 382.000 249.070,381.820 248.800,381.600 248.800 C 381.380 248.800,381.200 249.070,381.200 249.400 M18.800 251.800 C 18.800 252.130,18.980 252.400,19.200 252.400 C 19.420 252.400,19.600 252.130,19.600 251.800 C 19.600 251.470,19.420 251.200,19.200 251.200 C 18.980 251.200,18.800 251.470,18.800 251.800 M380.270 252.161 C 380.045 252.749,380.303 253.200,380.867 253.200 C 381.050 253.200,381.200 252.840,381.200 252.400 C 381.200 251.483,380.591 251.326,380.270 252.161 M19.600 254.800 C 19.600 255.316,19.803 255.599,20.100 255.500 C 20.375 255.408,20.600 255.093,20.600 254.800 C 20.600 254.507,20.375 254.192,20.100 254.100 C 19.803 254.001,19.600 254.284,19.600 254.800 M379.600 255.000 C 379.600 255.330,379.780 255.600,380.000 255.600 C 380.220 255.600,380.400 255.330,380.400 255.000 C 380.400 254.670,380.220 254.400,380.000 254.400 C 379.780 254.400,379.600 254.670,379.600 255.000 M20.400 257.400 C 20.400 257.730,20.580 258.000,20.800 258.000 C 21.020 258.000,21.200 257.730,21.200 257.400 C 21.200 257.070,21.020 256.800,20.800 256.800 C 20.580 256.800,20.400 257.070,20.400 257.400 M378.800 257.400 C 378.800 257.730,378.980 258.000,379.200 258.000 C 379.420 258.000,379.600 257.730,379.600 257.400 C 379.600 257.070,379.420 256.800,379.200 256.800 C 378.980 256.800,378.800 257.070,378.800 257.400 M21.200 259.800 C 21.200 260.167,21.394 260.402,21.630 260.323 C 21.867 260.245,22.060 260.009,22.060 259.800 C 22.060 259.591,21.867 259.356,21.630 259.277 C 21.394 259.198,21.200 259.433,21.200 259.800 M377.878 259.456 C 377.558 259.775,377.919 260.400,378.424 260.400 C 378.631 260.400,378.800 260.130,378.800 259.800 C 378.800 259.181,378.328 259.005,377.878 259.456 M377.000 261.600 C 376.708 262.072,377.087 262.800,377.624 262.800 C 377.831 262.800,378.000 262.440,378.000 262.000 C 378.000 261.156,377.418 260.924,377.000 261.600 M22.000 262.200 C 22.000 262.567,22.194 262.802,22.430 262.723 C 22.666 262.645,22.860 262.409,22.860 262.200 C 22.860 261.991,22.666 261.755,22.430 261.677 C 22.194 261.598,22.000 261.833,22.000 262.200 M376.200 264.000 C 375.908 264.472,376.287 265.200,376.824 265.200 C 377.031 265.200,377.200 264.840,377.200 264.400 C 377.200 263.556,376.618 263.324,376.200 264.000 M23.600 266.200 C 23.600 266.530,23.780 266.800,24.000 266.800 C 24.220 266.800,24.400 266.530,24.400 266.200 C 24.400 265.870,24.220 265.600,24.000 265.600 C 23.780 265.600,23.600 265.870,23.600 266.200 M24.400 268.633 C 24.400 268.982,24.614 269.195,24.875 269.108 C 25.617 268.861,25.740 268.000,25.033 268.000 C 24.685 268.000,24.400 268.285,24.400 268.633 M374.678 268.256 C 374.358 268.575,374.719 269.200,375.224 269.200 C 375.431 269.200,375.600 268.930,375.600 268.600 C 375.600 267.981,375.128 267.805,374.678 268.256 M26.000 272.400 C 26.000 272.916,26.203 273.199,26.500 273.100 C 26.775 273.008,27.000 272.693,27.000 272.400 C 27.000 272.107,26.775 271.792,26.500 271.700 C 26.203 271.601,26.000 271.884,26.000 272.400 M373.000 272.000 C 372.708 272.472,373.087 273.200,373.624 273.200 C 373.831 273.200,374.000 272.840,374.000 272.400 C 374.000 271.556,373.418 271.324,373.000 272.000 M26.800 274.200 C 26.800 274.530,26.980 274.800,27.200 274.800 C 27.420 274.800,27.600 274.530,27.600 274.200 C 27.600 273.870,27.420 273.600,27.200 273.600 C 26.980 273.600,26.800 273.870,26.800 274.200 M372.400 274.200 C 372.400 274.530,372.580 274.800,372.800 274.800 C 373.020 274.800,373.200 274.530,373.200 274.200 C 373.200 273.870,373.020 273.600,372.800 273.600 C 372.580 273.600,372.400 273.870,372.400 274.200 M370.600 277.600 C 370.308 278.072,370.687 278.800,371.224 278.800 C 371.431 278.800,371.600 278.440,371.600 278.000 C 371.600 277.156,371.018 276.924,370.600 277.600 M369.878 279.456 C 369.558 279.775,369.919 280.400,370.424 280.400 C 370.631 280.400,370.800 280.130,370.800 279.800 C 370.800 279.181,370.328 279.005,369.878 279.456 M369.078 281.056 C 368.758 281.375,369.119 282.000,369.624 282.000 C 369.831 282.000,370.000 281.730,370.000 281.400 C 370.000 280.781,369.528 280.605,369.078 281.056 M368.278 282.656 C 367.958 282.975,368.319 283.600,368.824 283.600 C 369.031 283.600,369.200 283.330,369.200 283.000 C 369.200 282.381,368.728 282.205,368.278 282.656 M367.292 284.475 C 367.539 285.217,368.400 285.340,368.400 284.633 C 368.400 284.285,368.115 284.000,367.767 284.000 C 367.418 284.000,367.205 284.214,367.292 284.475 M366.492 286.075 C 366.739 286.817,367.600 286.940,367.600 286.233 C 367.600 285.885,367.315 285.600,366.967 285.600 C 366.618 285.600,366.405 285.814,366.492 286.075 M365.600 287.800 C 365.600 288.130,365.870 288.400,366.200 288.400 C 366.530 288.400,366.800 288.130,366.800 287.800 C 366.800 287.470,366.530 287.200,366.200 287.200 C 365.870 287.200,365.600 287.470,365.600 287.800 M34.800 290.200 C 34.800 290.530,34.980 290.800,35.200 290.800 C 35.420 290.800,35.600 290.530,35.600 290.200 C 35.600 289.870,35.420 289.600,35.200 289.600 C 34.980 289.600,34.800 289.870,34.800 290.200 M35.600 291.767 C 35.600 292.115,35.885 292.400,36.233 292.400 C 36.940 292.400,36.817 291.539,36.075 291.292 C 35.814 291.205,35.600 291.418,35.600 291.767 M362.667 293.067 C 362.206 293.527,362.375 294.000,363.000 294.000 C 363.330 294.000,363.600 293.730,363.600 293.400 C 363.600 292.775,363.127 292.606,362.667 293.067 M38.000 295.800 C 38.000 296.167,38.194 296.402,38.430 296.323 C 38.667 296.245,38.860 296.009,38.860 295.800 C 38.860 295.591,38.667 295.356,38.430 295.277 C 38.194 295.198,38.000 295.433,38.000 295.800 M360.267 297.067 C 359.806 297.527,359.975 298.000,360.600 298.000 C 360.930 298.000,361.200 297.730,361.200 297.400 C 361.200 296.775,360.727 296.606,360.267 297.067 M40.400 299.800 C 40.400 300.167,40.594 300.402,40.830 300.323 C 41.067 300.245,41.260 300.009,41.260 299.800 C 41.260 299.591,41.067 299.356,40.830 299.277 C 40.594 299.198,40.400 299.433,40.400 299.800 M358.678 299.456 C 358.358 299.775,358.719 300.400,359.224 300.400 C 359.431 300.400,359.600 300.130,359.600 299.800 C 359.600 299.181,359.128 299.005,358.678 299.456 M42.000 302.200 C 42.000 302.567,42.194 302.802,42.430 302.723 C 42.667 302.645,42.860 302.409,42.860 302.200 C 42.860 301.991,42.667 301.755,42.430 301.677 C 42.194 301.598,42.000 301.833,42.000 302.200 M356.080 303.680 C 355.588 304.172,355.418 305.200,355.829 305.200 C 356.221 305.200,357.200 304.078,357.200 303.629 C 357.200 303.061,356.675 303.085,356.080 303.680 M43.600 304.429 C 43.600 304.985,44.774 306.160,45.051 305.882 C 45.351 305.583,44.455 304.000,43.986 304.000 C 43.774 304.000,43.600 304.193,43.600 304.429 M353.878 306.656 C 353.558 306.975,353.919 307.600,354.424 307.600 C 354.631 307.600,354.800 307.330,354.800 307.000 C 354.800 306.381,354.328 306.205,353.878 306.656 M351.836 309.560 C 351.382 310.062,351.294 310.411,351.577 310.586 C 352.047 310.877,353.200 309.913,353.200 309.229 C 353.200 308.571,352.599 308.718,351.836 309.560 M47.600 310.104 C 47.600 310.381,47.960 310.832,48.400 311.107 C 49.300 311.669,49.389 311.500,48.786 310.374 C 48.319 309.502,47.600 309.338,47.600 310.104 M349.680 312.480 C 349.188 312.972,349.018 314.000,349.429 314.000 C 349.821 314.000,350.800 312.878,350.800 312.429 C 350.800 311.861,350.275 311.885,349.680 312.480 M50.000 313.229 C 50.000 313.785,51.174 314.960,51.451 314.682 C 51.751 314.383,50.855 312.800,50.386 312.800 C 50.174 312.800,50.000 312.993,50.000 313.229 M346.829 316.254 C 346.025 317.276,345.772 318.000,346.218 318.000 C 346.611 318.000,348.400 316.047,348.400 315.618 C 348.400 314.879,347.681 315.170,346.829 316.254 M53.200 317.229 C 53.200 317.785,54.374 318.960,54.651 318.682 C 54.951 318.383,54.055 316.800,53.586 316.800 C 53.374 316.800,53.200 316.993,53.200 317.229 M342.642 321.156 C 341.249 322.610,341.972 323.265,343.397 321.840 C 344.390 320.846,344.702 320.000,344.075 320.000 C 343.896 320.000,343.251 320.520,342.642 321.156 M57.200 321.985 C 57.200 322.600,59.187 324.547,59.497 324.236 C 59.796 323.937,58.350 321.917,57.676 321.692 C 57.414 321.605,57.200 321.737,57.200 321.985 M333.573 331.005 C 329.763 334.848,329.174 335.600,329.972 335.600 C 330.523 335.600,338.000 328.154,338.000 327.605 C 338.000 326.731,337.204 327.342,333.573 331.005 M74.000 339.018 C 74.000 339.411,75.953 341.200,76.382 341.200 C 77.121 341.200,76.830 340.481,75.746 339.629 C 74.724 338.825,74.000 338.572,74.000 339.018 M324.200 340.027 C 323.980 340.240,323.305 340.784,322.700 341.236 C 321.583 342.071,321.263 342.800,322.013 342.800 C 322.432 342.800,325.200 340.206,325.200 339.813 C 325.200 339.480,324.642 339.600,324.200 340.027 M79.600 343.818 C 79.600 344.211,81.553 346.000,81.982 346.000 C 82.721 346.000,82.430 345.281,81.346 344.429 C 80.324 343.625,79.600 343.372,79.600 343.818 M317.500 345.632 C 316.726 346.083,316.559 346.800,317.229 346.800 C 317.464 346.800,317.914 346.543,318.229 346.229 C 319.242 345.215,318.815 344.866,317.500 345.632 M83.600 347.018 C 83.600 347.411,85.553 349.200,85.982 349.200 C 86.721 349.200,86.430 348.481,85.346 347.629 C 84.324 346.825,83.600 346.572,83.600 347.018 M314.300 348.032 C 313.526 348.483,313.359 349.200,314.029 349.200 C 314.264 349.200,314.714 348.943,315.029 348.629 C 316.042 347.615,315.615 347.266,314.300 348.032 M87.486 350.007 C 87.600 350.443,87.942 350.800,88.247 350.800 C 89.049 350.800,88.925 350.095,88.039 349.621 C 87.392 349.275,87.310 349.332,87.486 350.007 M311.100 350.432 C 310.715 350.656,310.400 351.011,310.400 351.220 C 310.400 351.898,311.394 351.622,311.907 350.800 C 312.454 349.925,312.183 349.801,311.100 350.432 M308.000 352.800 C 308.000 353.020,308.270 353.200,308.600 353.200 C 308.930 353.200,309.200 353.020,309.200 352.800 C 309.200 352.580,308.930 352.400,308.600 352.400 C 308.270 352.400,308.000 352.580,308.000 352.800 M93.200 354.167 C 93.200 354.515,93.485 354.800,93.833 354.800 C 94.182 354.800,94.395 354.586,94.308 354.325 C 94.061 353.583,93.200 353.460,93.200 354.167 M305.500 354.276 C 304.703 354.484,304.537 355.600,305.304 355.600 C 305.581 355.600,306.032 355.240,306.307 354.800 C 306.814 353.989,306.751 353.949,305.500 354.276 M95.856 355.478 C 95.405 355.928,95.581 356.400,96.200 356.400 C 96.530 356.400,96.800 356.231,96.800 356.024 C 96.800 355.519,96.175 355.158,95.856 355.478 M303.100 356.032 C 302.715 356.256,302.400 356.611,302.400 356.820 C 302.400 357.498,303.394 357.222,303.907 356.400 C 304.454 355.525,304.183 355.401,303.100 356.032 M98.000 357.367 C 98.000 357.715,98.285 358.000,98.633 358.000 C 99.340 358.000,99.217 357.139,98.475 356.892 C 98.214 356.805,98.000 357.018,98.000 357.367 M298.656 358.678 C 298.205 359.128,298.381 359.600,299.000 359.600 C 299.330 359.600,299.600 359.431,299.600 359.224 C 299.600 358.719,298.975 358.358,298.656 358.678 M102.256 359.478 C 101.805 359.928,101.981 360.400,102.600 360.400 C 102.930 360.400,103.200 360.231,103.200 360.024 C 103.200 359.519,102.575 359.158,102.256 359.478 M296.700 360.032 C 296.315 360.256,296.000 360.611,296.000 360.820 C 296.000 361.498,296.994 361.222,297.507 360.400 C 298.054 359.525,297.783 359.401,296.700 360.032 M294.656 361.078 C 294.205 361.528,294.381 362.000,295.000 362.000 C 295.330 362.000,295.600 361.831,295.600 361.624 C 295.600 361.119,294.975 360.758,294.656 361.078 M107.600 363.200 C 107.600 363.420,107.870 363.600,108.200 363.600 C 108.530 363.600,108.800 363.420,108.800 363.200 C 108.800 362.980,108.530 362.800,108.200 362.800 C 107.870 362.800,107.600 362.980,107.600 363.200 M290.400 363.800 C 290.400 364.130,290.670 364.400,291.000 364.400 C 291.330 364.400,291.600 364.130,291.600 363.800 C 291.600 363.470,291.330 363.200,291.000 363.200 C 290.670 363.200,290.400 363.470,290.400 363.800 M288.800 364.567 C 288.800 364.915,289.085 365.200,289.433 365.200 C 290.140 365.200,290.017 364.339,289.275 364.092 C 289.014 364.005,288.800 364.218,288.800 364.567 M287.456 365.078 C 287.005 365.528,287.181 366.000,287.800 366.000 C 288.130 366.000,288.400 365.831,288.400 365.624 C 288.400 365.119,287.775 364.758,287.456 365.078 M113.200 366.167 C 113.200 366.515,113.485 366.800,113.833 366.800 C 114.182 366.800,114.395 366.586,114.308 366.325 C 114.061 365.583,113.200 365.460,113.200 366.167 M285.856 365.878 C 285.405 366.328,285.581 366.800,286.200 366.800 C 286.530 366.800,286.800 366.631,286.800 366.424 C 286.800 365.919,286.175 365.558,285.856 365.878 M115.067 366.667 C 114.606 367.127,114.775 367.600,115.400 367.600 C 115.730 367.600,116.000 367.330,116.000 367.000 C 116.000 366.375,115.527 366.206,115.067 366.667 M284.000 367.200 C 284.000 367.420,284.270 367.600,284.600 367.600 C 284.930 367.600,285.200 367.420,285.200 367.200 C 285.200 366.980,284.930 366.800,284.600 366.800 C 284.270 366.800,284.000 366.980,284.000 367.200 M116.400 367.800 C 116.400 368.130,116.670 368.400,117.000 368.400 C 117.330 368.400,117.600 368.130,117.600 367.800 C 117.600 367.470,117.330 367.200,117.000 367.200 C 116.670 367.200,116.400 367.470,116.400 367.800 M282.400 368.000 C 282.400 368.220,282.670 368.400,283.000 368.400 C 283.330 368.400,283.600 368.220,283.600 368.000 C 283.600 367.780,283.330 367.600,283.000 367.600 C 282.670 367.600,282.400 367.780,282.400 368.000 M118.267 368.267 C 117.806 368.727,117.975 369.200,118.600 369.200 C 118.930 369.200,119.200 368.930,119.200 368.600 C 119.200 367.975,118.727 367.806,118.267 368.267 M280.800 368.800 C 280.800 369.020,281.070 369.200,281.400 369.200 C 281.730 369.200,282.000 369.020,282.000 368.800 C 282.000 368.580,281.730 368.400,281.400 368.400 C 281.070 368.400,280.800 368.580,280.800 368.800 M119.867 369.067 C 119.406 369.527,119.575 370.000,120.200 370.000 C 120.530 370.000,120.800 369.730,120.800 369.400 C 120.800 368.775,120.327 368.606,119.867 369.067 M279.200 369.600 C 279.200 369.820,279.470 370.000,279.800 370.000 C 280.130 370.000,280.400 369.820,280.400 369.600 C 280.400 369.380,280.130 369.200,279.800 369.200 C 279.470 369.200,279.200 369.380,279.200 369.600 M277.856 369.878 C 277.405 370.328,277.581 370.800,278.200 370.800 C 278.530 370.800,278.800 370.631,278.800 370.424 C 278.800 369.919,278.175 369.558,277.856 369.878 M121.200 370.400 C 121.200 370.620,121.470 370.800,121.800 370.800 C 122.130 370.800,122.400 370.620,122.400 370.400 C 122.400 370.180,122.130 370.000,121.800 370.000 C 121.470 370.000,121.200 370.180,121.200 370.400 M125.456 371.478 C 125.005 371.928,125.181 372.400,125.800 372.400 C 126.130 372.400,126.400 372.231,126.400 372.024 C 126.400 371.519,125.775 371.158,125.456 371.478 M127.075 372.258 C 126.553 372.780,126.802 373.200,127.633 373.200 C 128.099 373.200,128.397 372.990,128.308 372.725 C 128.113 372.140,127.446 371.888,127.075 372.258 M272.256 372.278 C 271.805 372.728,271.981 373.200,272.600 373.200 C 272.930 373.200,273.200 373.031,273.200 372.824 C 273.200 372.319,272.575 371.958,272.256 372.278 M270.275 373.058 C 269.753 373.580,270.002 374.000,270.833 374.000 C 271.299 374.000,271.597 373.790,271.508 373.525 C 271.313 372.940,270.646 372.688,270.275 373.058 M129.200 373.600 C 129.200 373.820,129.470 374.000,129.800 374.000 C 130.130 374.000,130.400 373.820,130.400 373.600 C 130.400 373.380,130.130 373.200,129.800 373.200 C 129.470 373.200,129.200 373.380,129.200 373.600 M131.039 373.894 C 130.558 374.376,130.820 374.800,131.600 374.800 C 132.040 374.800,132.400 374.639,132.400 374.443 C 132.400 373.993,131.360 373.574,131.039 373.894 M268.000 374.400 C 268.000 374.620,268.270 374.800,268.600 374.800 C 268.930 374.800,269.200 374.620,269.200 374.400 C 269.200 374.180,268.930 374.000,268.600 374.000 C 268.270 374.000,268.000 374.180,268.000 374.400 M133.200 375.200 C 133.200 375.420,133.470 375.600,133.800 375.600 C 134.130 375.600,134.400 375.420,134.400 375.200 C 134.400 374.980,134.130 374.800,133.800 374.800 C 133.470 374.800,133.200 374.980,133.200 375.200 M263.875 375.458 C 263.353 375.980,263.602 376.400,264.433 376.400 C 264.899 376.400,265.197 376.190,265.108 375.925 C 264.913 375.340,264.246 375.088,263.875 375.458 M137.475 376.258 C 136.953 376.780,137.202 377.200,138.033 377.200 C 138.499 377.200,138.797 376.990,138.708 376.725 C 138.513 376.140,137.846 375.888,137.475 376.258 M261.856 376.278 C 261.405 376.728,261.581 377.200,262.200 377.200 C 262.530 377.200,262.800 377.031,262.800 376.824 C 262.800 376.319,262.175 375.958,261.856 376.278 M139.856 377.078 C 139.405 377.528,139.581 378.000,140.200 378.000 C 140.530 378.000,140.800 377.831,140.800 377.624 C 140.800 377.119,140.175 376.758,139.856 377.078 M259.200 377.600 C 259.200 377.820,259.470 378.000,259.800 378.000 C 260.130 378.000,260.400 377.820,260.400 377.600 C 260.400 377.380,260.130 377.200,259.800 377.200 C 259.470 377.200,259.200 377.380,259.200 377.600 M142.267 377.867 C 141.806 378.327,141.975 378.800,142.600 378.800 C 142.930 378.800,143.200 378.530,143.200 378.200 C 143.200 377.575,142.727 377.406,142.267 377.867 M256.800 378.400 C 256.800 378.620,257.070 378.800,257.400 378.800 C 257.730 378.800,258.000 378.620,258.000 378.400 C 258.000 378.180,257.730 378.000,257.400 378.000 C 257.070 378.000,256.800 378.180,256.800 378.400 M144.675 378.658 C 144.153 379.180,144.402 379.600,145.233 379.600 C 145.699 379.600,145.997 379.390,145.908 379.125 C 145.713 378.540,145.046 378.288,144.675 378.658 M254.275 378.658 C 253.753 379.180,254.002 379.600,254.833 379.600 C 255.299 379.600,255.597 379.390,255.508 379.125 C 255.313 378.540,254.646 378.288,254.275 378.658 M251.700 379.467 C 250.827 379.816,251.161 380.400,252.233 380.400 C 252.853 380.400,253.203 380.210,253.108 379.925 C 252.921 379.362,252.392 379.190,251.700 379.467 M146.800 380.000 C 146.800 380.220,147.250 380.400,147.800 380.400 C 148.350 380.400,148.800 380.220,148.800 380.000 C 148.800 379.780,148.350 379.600,147.800 379.600 C 147.250 379.600,146.800 379.780,146.800 380.000 M150.275 380.258 C 149.753 380.780,150.002 381.200,150.833 381.200 C 151.299 381.200,151.597 380.990,151.508 380.725 C 151.313 380.140,150.646 379.888,150.275 380.258 M248.675 380.258 C 248.153 380.780,248.402 381.200,249.233 381.200 C 249.699 381.200,249.997 380.990,249.908 380.725 C 249.713 380.140,249.046 379.888,248.675 380.258 M153.475 381.058 C 152.953 381.580,153.202 382.000,154.033 382.000 C 154.499 382.000,154.797 381.790,154.708 381.525 C 154.513 380.940,153.846 380.688,153.475 381.058 M245.200 381.600 C 245.200 381.820,245.560 382.000,246.000 382.000 C 246.440 382.000,246.800 381.820,246.800 381.600 C 246.800 381.380,246.440 381.200,246.000 381.200 C 245.560 381.200,245.200 381.380,245.200 381.600 M156.675 381.858 C 156.153 382.380,156.402 382.800,157.233 382.800 C 157.699 382.800,157.997 382.590,157.908 382.325 C 157.713 381.740,157.046 381.488,156.675 381.858 M242.275 381.858 C 241.753 382.380,242.002 382.800,242.833 382.800 C 243.299 382.800,243.597 382.590,243.508 382.325 C 243.313 381.740,242.646 381.488,242.275 381.858 M238.680 382.653 C 238.118 383.215,238.424 383.600,239.433 383.600 C 240.082 383.600,240.405 383.414,240.300 383.100 C 240.108 382.522,239.092 382.241,238.680 382.653 M160.400 383.200 C 160.400 383.420,160.760 383.600,161.200 383.600 C 161.640 383.600,162.000 383.420,162.000 383.200 C 162.000 382.980,161.640 382.800,161.200 382.800 C 160.760 382.800,160.400 382.980,160.400 383.200 M164.675 383.458 C 164.153 383.980,164.402 384.400,165.233 384.400 C 165.699 384.400,165.997 384.190,165.908 383.925 C 165.713 383.340,165.046 383.088,164.675 383.458 M234.500 383.460 C 233.564 383.847,233.996 384.400,235.233 384.400 C 236.042 384.400,236.409 384.228,236.300 383.900 C 236.116 383.347,235.273 383.141,234.500 383.460 M168.667 384.267 C 168.093 384.840,168.453 385.200,169.600 385.200 C 170.882 385.200,171.212 384.644,170.167 384.243 C 169.354 383.931,168.997 383.936,168.667 384.267 M230.100 384.267 C 229.227 384.616,229.561 385.200,230.633 385.200 C 231.253 385.200,231.603 385.010,231.508 384.725 C 231.321 384.162,230.792 383.990,230.100 384.267 M174.267 385.067 C 173.693 385.640,174.053 386.000,175.200 386.000 C 176.482 386.000,176.812 385.444,175.767 385.043 C 174.954 384.731,174.597 384.736,174.267 385.067 M224.300 385.076 C 223.011 385.413,223.582 386.000,225.200 386.000 C 226.816 386.000,227.332 385.490,226.167 385.043 C 225.498 384.786,225.403 384.787,224.300 385.076 M180.667 385.867 C 180.016 386.517,180.541 386.800,182.400 386.800 C 184.631 386.800,185.076 386.235,183.150 385.850 C 181.555 385.531,180.999 385.535,180.667 385.867 M216.500 385.874 C 214.848 386.207,215.574 386.800,217.633 386.800 C 219.081 386.800,219.619 386.656,219.502 386.300 C 219.328 385.767,217.978 385.576,216.500 385.874 M191.300 386.661 C 189.598 387.362,191.713 387.600,199.633 387.600 C 206.522 387.600,208.430 387.490,208.300 387.100 C 208.132 386.594,192.446 386.189,191.300 386.661 " stroke="none" fill="#f7f7f7" fill-rule="evenodd"></path><path id="path1" d="M186.299 13.700 C 186.177 14.064,185.062 14.173,182.190 14.099 C 179.371 14.027,178.160 14.140,177.939 14.499 C 177.728 14.839,176.769 14.964,174.945 14.888 C 173.094 14.811,172.164 14.935,171.945 15.288 C 171.733 15.631,170.846 15.767,169.258 15.699 C 167.510 15.624,166.829 15.747,166.669 16.164 C 166.509 16.581,166.010 16.672,164.775 16.506 C 163.516 16.337,163.013 16.433,162.756 16.892 C 162.499 17.352,161.967 17.453,160.607 17.300 C 159.410 17.165,158.800 17.249,158.800 17.548 C 158.800 17.818,158.065 18.000,156.976 18.000 C 155.863 18.000,155.249 18.156,155.400 18.400 C 155.549 18.641,155.018 18.800,154.066 18.800 C 153.019 18.800,152.407 19.006,152.252 19.410 C 152.088 19.835,151.715 19.944,151.021 19.769 C 150.371 19.606,149.805 19.738,149.396 20.147 C 148.973 20.570,148.384 20.697,147.585 20.537 C 146.833 20.387,146.400 20.465,146.400 20.750 C 146.400 20.998,145.789 21.200,145.043 21.200 C 144.196 21.200,143.598 21.429,143.452 21.810 C 143.292 22.226,142.914 22.343,142.263 22.180 C 141.599 22.013,141.234 22.135,141.063 22.580 C 140.888 23.037,140.530 23.147,139.809 22.966 C 139.185 22.810,138.800 22.882,138.800 23.157 C 138.800 23.400,138.260 23.600,137.600 23.600 C 136.940 23.600,136.400 23.780,136.400 24.000 C 136.400 24.220,135.950 24.400,135.400 24.400 C 134.850 24.400,134.400 24.580,134.400 24.800 C 134.400 25.020,133.969 25.200,133.443 25.200 C 132.916 25.200,132.377 25.482,132.245 25.828 C 132.085 26.245,131.735 26.370,131.202 26.201 C 130.741 26.054,130.400 26.128,130.400 26.373 C 130.400 26.608,129.770 26.800,129.000 26.800 C 128.230 26.800,127.600 26.980,127.600 27.200 C 127.600 27.420,127.349 27.600,127.043 27.600 C 126.736 27.600,126.383 27.867,126.258 28.193 C 126.128 28.531,125.765 28.685,125.415 28.550 C 125.077 28.421,124.800 28.514,124.800 28.757 C 124.800 29.001,124.350 29.200,123.800 29.200 C 123.250 29.200,122.800 29.380,122.800 29.600 C 122.800 29.820,122.459 30.000,122.043 30.000 C 121.626 30.000,121.174 30.290,121.038 30.645 C 120.881 31.055,120.499 31.215,119.995 31.083 C 119.467 30.945,119.200 31.073,119.200 31.464 C 119.200 31.872,118.953 31.976,118.400 31.800 C 117.941 31.654,117.600 31.728,117.600 31.973 C 117.600 32.208,117.240 32.400,116.800 32.400 C 116.340 32.400,116.000 32.667,116.000 33.027 C 116.000 33.472,115.768 33.580,115.200 33.400 C 114.616 33.215,114.400 33.328,114.400 33.820 C 114.400 34.296,114.166 34.432,113.600 34.284 C 113.160 34.169,112.800 34.238,112.800 34.437 C 112.800 34.637,112.350 34.800,111.800 34.800 C 111.250 34.800,110.800 34.980,110.800 35.200 C 110.800 35.420,110.480 35.600,110.088 35.600 C 109.697 35.600,109.117 35.960,108.800 36.400 C 108.483 36.840,108.012 37.200,107.754 37.200 C 107.497 37.200,107.183 37.467,107.058 37.793 C 106.928 38.131,106.565 38.285,106.215 38.150 C 105.809 37.995,105.600 38.147,105.600 38.601 C 105.600 39.117,105.372 39.230,104.679 39.056 C 104.038 38.895,103.587 39.064,103.191 39.612 C 102.879 40.046,102.483 40.400,102.312 40.400 C 102.140 40.400,101.640 40.760,101.200 41.200 C 100.760 41.640,100.130 42.000,99.800 42.000 C 99.470 42.000,99.200 42.180,99.200 42.400 C 99.200 42.620,98.779 42.800,98.264 42.800 C 97.648 42.800,97.169 43.150,96.861 43.826 C 96.527 44.558,96.185 44.786,95.664 44.620 C 95.142 44.455,94.799 44.683,94.464 45.420 C 94.128 46.157,93.785 46.386,93.264 46.220 C 92.744 46.055,92.400 46.281,92.071 47.003 C 91.786 47.630,91.166 48.107,90.450 48.250 C 89.753 48.389,89.115 48.868,88.850 49.450 C 88.585 50.032,87.947 50.511,87.250 50.650 C 86.553 50.789,85.915 51.268,85.650 51.850 C 85.385 52.432,84.747 52.911,84.050 53.050 C 83.362 53.188,82.716 53.667,82.459 54.230 C 82.222 54.751,81.528 55.303,80.917 55.456 C 79.845 55.726,77.779 57.654,76.269 59.796 C 75.867 60.366,75.012 60.938,74.369 61.066 C 73.576 61.225,73.200 61.541,73.200 62.050 C 73.200 62.463,72.928 62.800,72.596 62.800 C 71.923 62.800,61.200 73.351,61.200 74.013 C 61.200 74.738,58.590 77.582,56.072 79.600 C 55.340 80.186,54.819 80.980,54.812 81.519 C 54.804 82.113,54.378 82.678,53.603 83.119 C 52.944 83.493,52.404 84.115,52.403 84.500 C 52.400 85.220,51.587 86.155,50.067 87.188 C 49.513 87.564,49.283 88.030,49.427 88.484 C 49.583 88.976,49.350 89.331,48.667 89.642 C 48.069 89.915,47.591 90.546,47.450 91.250 C 47.305 91.974,46.830 92.586,46.182 92.881 C 45.459 93.211,45.205 93.578,45.342 94.099 C 45.476 94.612,45.234 94.984,44.569 95.287 C 43.919 95.583,43.600 96.058,43.600 96.731 C 43.600 97.282,43.489 97.622,43.352 97.486 C 42.934 97.067,41.908 98.383,42.153 99.022 C 42.303 99.412,42.025 99.788,41.365 100.089 C 40.655 100.412,40.406 100.779,40.542 101.301 C 40.654 101.728,40.494 102.143,40.169 102.267 C 39.856 102.387,39.600 102.670,39.600 102.896 C 39.600 103.122,39.219 103.637,38.753 104.041 C 38.251 104.476,38.003 105.032,38.146 105.403 C 38.285 105.766,38.137 106.126,37.793 106.258 C 37.467 106.383,37.200 106.697,37.200 106.954 C 37.200 107.212,36.846 107.679,36.412 107.991 C 35.864 108.387,35.695 108.838,35.856 109.479 C 36.030 110.172,35.917 110.400,35.401 110.400 C 34.947 110.400,34.795 110.609,34.950 111.015 C 35.085 111.365,34.931 111.728,34.593 111.858 C 34.267 111.983,34.000 112.426,34.000 112.843 C 34.000 113.259,33.820 113.600,33.600 113.600 C 33.380 113.600,33.200 113.960,33.200 114.400 C 33.200 114.840,33.020 115.200,32.800 115.200 C 32.580 115.200,32.400 115.470,32.400 115.800 C 32.400 116.130,32.220 116.400,32.000 116.400 C 31.780 116.400,31.600 116.760,31.600 117.200 C 31.600 117.640,31.420 118.000,31.200 118.000 C 30.980 118.000,30.800 118.360,30.800 118.800 C 30.800 119.240,30.620 119.600,30.400 119.600 C 30.180 119.600,30.000 119.960,30.000 120.400 C 30.000 120.840,29.820 121.200,29.600 121.200 C 29.380 121.200,29.200 121.650,29.200 122.200 C 29.200 122.750,29.008 123.200,28.773 123.200 C 28.528 123.200,28.454 123.541,28.600 124.000 C 28.780 124.568,28.672 124.800,28.227 124.800 C 27.825 124.800,27.600 125.159,27.600 125.800 C 27.600 126.350,27.420 126.800,27.200 126.800 C 26.980 126.800,26.800 127.250,26.800 127.800 C 26.800 128.350,26.608 128.800,26.373 128.800 C 26.128 128.800,26.054 129.141,26.200 129.600 C 26.380 130.168,26.272 130.400,25.827 130.400 C 25.397 130.400,25.200 130.777,25.200 131.600 C 25.200 132.260,25.008 132.800,24.773 132.800 C 24.528 132.800,24.454 133.141,24.601 133.602 C 24.773 134.145,24.642 134.486,24.195 134.657 C 23.782 134.816,23.611 135.198,23.737 135.680 C 23.854 136.128,23.701 136.540,23.369 136.667 C 23.056 136.787,22.800 137.406,22.800 138.043 C 22.800 138.679,22.620 139.200,22.400 139.200 C 22.180 139.200,22.000 139.650,22.000 140.200 C 22.000 140.750,21.820 141.200,21.600 141.200 C 21.380 141.200,21.200 141.830,21.200 142.600 C 21.200 143.370,21.020 144.000,20.800 144.000 C 20.580 144.000,20.400 144.540,20.400 145.200 C 20.400 145.860,20.198 146.400,19.950 146.400 C 19.662 146.400,19.588 146.838,19.743 147.615 C 19.917 148.487,19.818 148.895,19.393 149.058 C 19.030 149.197,18.800 149.812,18.800 150.643 C 18.800 151.389,18.598 152.000,18.350 152.000 C 18.065 152.000,17.987 152.433,18.137 153.185 C 18.297 153.984,18.170 154.573,17.747 154.996 C 17.349 155.394,17.207 155.974,17.360 156.583 C 17.510 157.180,17.374 157.769,17.000 158.142 C 16.660 158.483,16.400 159.459,16.400 160.395 C 16.400 161.395,16.242 161.950,16.000 161.800 C 15.752 161.647,15.600 162.396,15.600 163.776 C 15.600 165.163,15.430 166.000,15.148 166.000 C 14.848 166.000,14.765 166.612,14.901 167.818 C 15.048 169.121,14.935 169.808,14.504 170.239 C 14.065 170.678,13.955 171.393,14.098 172.880 C 14.318 175.164,14.092 176.504,13.545 176.166 C 13.334 176.035,13.227 177.469,13.290 179.585 C 13.356 181.773,13.234 183.344,12.985 183.515 C 12.407 183.913,12.402 215.692,12.980 216.087 C 13.237 216.262,13.354 217.782,13.282 219.997 C 13.189 222.848,13.296 223.753,13.782 224.239 C 14.258 224.715,14.342 225.350,14.148 227.005 C 13.955 228.644,14.039 229.296,14.501 229.758 C 14.934 230.191,15.048 230.875,14.903 232.160 C 14.756 233.465,14.872 234.129,15.325 234.582 C 15.757 235.014,15.880 235.630,15.725 236.582 C 15.571 237.535,15.694 238.151,16.125 238.582 C 16.560 239.017,16.680 239.630,16.522 240.603 C 16.375 241.509,16.454 242.000,16.748 242.000 C 17.009 242.000,17.200 242.677,17.200 243.600 C 17.200 244.480,17.380 245.200,17.600 245.200 C 17.820 245.200,18.000 245.901,18.000 246.757 C 18.000 247.764,18.210 248.395,18.593 248.542 C 19.018 248.705,19.117 249.113,18.943 249.985 C 18.788 250.762,18.862 251.200,19.150 251.200 C 19.398 251.200,19.600 251.811,19.600 252.557 C 19.600 253.388,19.830 254.003,20.193 254.142 C 20.618 254.305,20.717 254.713,20.543 255.585 C 20.388 256.362,20.462 256.800,20.750 256.800 C 20.998 256.800,21.200 257.321,21.200 257.957 C 21.200 258.594,21.456 259.213,21.769 259.333 C 22.131 259.471,22.255 259.870,22.109 260.426 C 21.962 260.989,22.103 261.426,22.503 261.650 C 22.879 261.860,23.043 262.315,22.916 262.799 C 22.799 263.247,22.903 263.600,23.153 263.600 C 23.399 263.600,23.600 264.050,23.600 264.600 C 23.600 265.150,23.780 265.600,24.000 265.600 C 24.220 265.600,24.400 266.140,24.400 266.800 C 24.400 267.607,24.599 268.000,25.008 268.000 C 25.465 268.000,25.550 268.262,25.349 269.060 C 25.162 269.805,25.219 270.035,25.542 269.836 C 25.839 269.653,26.000 269.898,26.000 270.534 C 26.000 271.073,26.282 271.623,26.628 271.755 C 27.045 271.915,27.170 272.265,27.001 272.798 C 26.854 273.259,26.928 273.600,27.173 273.600 C 27.408 273.600,27.600 274.050,27.600 274.600 C 27.600 275.150,27.780 275.600,28.000 275.600 C 28.220 275.600,28.400 276.140,28.400 276.800 C 28.400 277.460,28.580 278.000,28.800 278.000 C 29.020 278.000,29.200 278.360,29.200 278.800 C 29.200 279.240,29.380 279.600,29.600 279.600 C 29.820 279.600,30.000 279.960,30.000 280.400 C 30.000 280.840,30.180 281.200,30.400 281.200 C 30.620 281.200,30.800 281.560,30.800 282.000 C 30.800 282.440,30.980 282.800,31.200 282.800 C 31.420 282.800,31.600 283.160,31.600 283.600 C 31.600 284.040,31.780 284.400,32.000 284.400 C 32.220 284.400,32.400 284.720,32.400 285.112 C 32.400 285.503,32.760 286.083,33.200 286.400 C 33.640 286.717,34.000 287.297,34.000 287.688 C 34.000 288.080,34.180 288.400,34.400 288.400 C 34.620 288.400,34.800 288.670,34.800 289.000 C 34.800 289.330,34.980 289.600,35.200 289.600 C 35.420 289.600,35.600 289.941,35.600 290.357 C 35.600 290.774,35.882 291.223,36.228 291.355 C 36.613 291.503,36.768 291.872,36.628 292.310 C 36.487 292.757,36.701 293.241,37.201 293.601 C 37.640 293.917,38.000 294.388,38.000 294.646 C 38.000 294.903,38.267 295.217,38.593 295.342 C 38.937 295.474,39.085 295.834,38.946 296.197 C 38.803 296.568,39.051 297.124,39.553 297.559 C 40.019 297.963,40.400 298.478,40.400 298.704 C 40.400 298.930,40.656 299.213,40.969 299.333 C 41.294 299.457,41.454 299.872,41.342 300.299 C 41.207 300.818,41.452 301.187,42.142 301.501 C 42.830 301.814,43.077 302.184,42.942 302.701 C 42.806 303.220,43.056 303.588,43.762 303.910 C 44.343 304.175,44.896 304.850,45.053 305.486 C 45.204 306.099,45.659 306.891,46.064 307.247 C 46.469 307.603,46.800 308.159,46.800 308.483 C 46.800 308.807,47.254 309.278,47.809 309.531 C 48.431 309.815,48.907 310.436,49.050 311.150 C 49.188 311.838,49.667 312.484,50.230 312.741 C 50.751 312.978,51.303 313.672,51.456 314.282 C 51.768 315.525,52.208 316.055,53.504 316.748 C 53.991 317.009,54.513 317.713,54.663 318.312 C 54.927 319.370,56.115 320.655,58.181 322.116 C 58.737 322.510,59.311 323.302,59.455 323.878 C 59.804 325.268,73.132 338.596,74.522 338.945 C 75.098 339.089,75.890 339.663,76.284 340.219 C 77.671 342.181,79.013 343.412,80.197 343.813 C 80.856 344.035,81.756 344.773,82.197 345.451 C 82.639 346.130,83.539 346.846,84.198 347.042 C 84.867 347.242,85.751 347.968,86.198 348.685 C 86.639 349.391,87.146 349.976,87.324 349.985 C 87.502 349.993,87.525 349.802,87.375 349.560 C 87.178 349.240,87.328 349.240,87.925 349.560 C 88.376 349.801,88.860 350.359,89.000 350.800 C 89.140 351.240,89.530 351.600,89.866 351.600 C 90.203 351.600,90.984 352.141,91.602 352.802 C 92.307 353.557,92.958 353.914,93.353 353.763 C 93.778 353.600,94.139 353.867,94.467 354.587 C 94.809 355.337,95.174 355.596,95.699 355.458 C 96.213 355.324,96.584 355.567,96.890 356.237 C 97.203 356.925,97.549 357.143,98.064 356.980 C 98.585 356.814,98.927 357.042,99.261 357.774 C 99.518 358.338,100.060 358.800,100.464 358.800 C 100.869 358.800,101.200 359.001,101.200 359.247 C 101.200 359.501,101.555 359.600,102.024 359.478 C 102.529 359.346,102.934 359.483,103.067 359.831 C 103.187 360.144,103.497 360.400,103.754 360.400 C 104.012 360.400,104.483 360.760,104.800 361.200 C 105.117 361.640,105.697 362.000,106.088 362.000 C 106.480 362.000,106.800 362.180,106.800 362.400 C 106.800 362.620,107.238 362.800,107.773 362.800 C 108.395 362.800,108.838 363.089,109.000 363.600 C 109.140 364.040,109.602 364.400,110.027 364.400 C 110.452 364.400,110.800 364.580,110.800 364.800 C 110.800 365.020,111.160 365.200,111.600 365.200 C 112.040 365.200,112.400 365.392,112.400 365.627 C 112.400 365.872,112.741 365.946,113.202 365.799 C 113.739 365.629,114.085 365.756,114.249 366.184 C 114.407 366.595,114.764 366.738,115.247 366.585 C 115.752 366.425,116.000 366.540,116.000 366.936 C 116.000 367.328,116.267 367.455,116.800 367.316 C 117.366 367.168,117.600 367.304,117.600 367.780 C 117.600 368.272,117.816 368.385,118.400 368.200 C 118.977 368.017,119.200 368.128,119.200 368.600 C 119.200 369.072,119.423 369.183,120.000 369.000 C 120.568 368.820,120.800 368.928,120.800 369.373 C 120.800 369.733,121.140 370.000,121.600 370.000 C 122.040 370.000,122.400 370.180,122.400 370.400 C 122.400 370.620,122.850 370.800,123.400 370.800 C 123.950 370.800,124.400 371.001,124.400 371.247 C 124.400 371.501,124.755 371.600,125.224 371.478 C 125.734 371.344,126.134 371.484,126.272 371.843 C 126.410 372.202,126.783 372.332,127.249 372.184 C 127.731 372.031,128.091 372.171,128.245 372.572 C 128.377 372.918,128.916 373.200,129.443 373.200 C 129.969 373.200,130.400 373.399,130.400 373.643 C 130.400 373.886,130.665 373.984,130.988 373.860 C 131.312 373.736,131.839 373.896,132.160 374.217 C 132.481 374.538,133.116 374.800,133.571 374.800 C 134.027 374.800,134.400 374.980,134.400 375.200 C 134.400 375.420,134.850 375.600,135.400 375.600 C 135.950 375.600,136.400 375.800,136.400 376.043 C 136.400 376.318,136.785 376.390,137.409 376.234 C 138.131 376.052,138.488 376.163,138.664 376.622 C 138.816 377.020,139.204 377.188,139.680 377.063 C 140.143 376.942,140.542 377.103,140.682 377.470 C 140.847 377.899,141.250 378.010,142.058 377.848 C 142.933 377.673,143.200 377.769,143.200 378.260 C 143.200 378.760,143.467 378.847,144.415 378.657 C 145.287 378.483,145.695 378.582,145.858 379.007 C 145.997 379.370,146.612 379.600,147.443 379.600 C 148.189 379.600,148.800 379.803,148.800 380.050 C 148.800 380.336,149.234 380.413,149.987 380.263 C 150.844 380.091,151.275 380.205,151.537 380.673 C 151.803 381.148,152.227 381.255,153.137 381.073 C 154.046 380.891,154.470 380.997,154.737 381.473 C 155.005 381.953,155.426 382.055,156.365 381.867 C 157.287 381.683,157.692 381.775,157.858 382.207 C 158.016 382.619,158.682 382.800,160.043 382.800 C 161.231 382.800,162.000 382.978,162.000 383.252 C 162.000 383.551,162.610 383.635,163.807 383.500 C 165.169 383.347,165.699 383.448,165.957 383.910 C 166.223 384.384,166.715 384.466,168.132 384.271 C 169.528 384.080,170.116 384.173,170.606 384.664 C 171.104 385.161,171.741 385.256,173.425 385.082 C 175.020 384.918,175.754 385.011,176.174 385.432 C 176.606 385.863,177.652 385.980,180.388 385.903 C 182.513 385.843,184.147 385.969,184.314 386.205 C 184.711 386.768,215.295 386.774,215.686 386.212 C 215.856 385.966,217.463 385.842,219.660 385.904 C 222.290 385.979,223.437 385.864,223.659 385.504 C 223.871 385.162,224.815 385.035,226.604 385.110 C 228.476 385.188,229.404 385.054,229.811 384.647 C 230.201 384.256,230.889 384.142,231.970 384.287 C 233.111 384.440,233.737 384.320,234.197 383.860 C 234.673 383.384,235.277 383.281,236.558 383.456 C 237.925 383.644,238.330 383.558,238.529 383.040 C 238.726 382.527,239.112 382.440,240.331 382.635 C 241.524 382.826,241.937 382.740,242.120 382.263 C 242.299 381.799,242.714 381.701,243.779 381.874 C 244.705 382.024,245.200 381.947,245.200 381.652 C 245.200 381.393,245.866 381.200,246.757 381.200 C 247.784 381.200,248.394 380.992,248.548 380.590 C 248.712 380.165,249.085 380.056,249.779 380.231 C 250.434 380.395,250.996 380.261,251.417 379.840 C 251.814 379.443,252.407 379.287,252.975 379.429 C 253.592 379.584,253.970 379.456,254.131 379.037 C 254.306 378.580,254.694 378.479,255.585 378.657 C 256.362 378.812,256.800 378.738,256.800 378.450 C 256.800 378.203,257.340 378.000,258.000 378.000 C 258.660 378.000,259.200 377.820,259.200 377.600 C 259.200 377.380,259.721 377.200,260.357 377.200 C 261.011 377.200,261.613 376.942,261.742 376.607 C 261.880 376.246,262.230 376.113,262.634 376.269 C 263.043 376.425,263.442 376.268,263.671 375.859 C 263.930 375.397,264.339 375.270,265.021 375.441 C 265.619 375.591,266.000 375.514,266.000 375.243 C 266.000 375.000,266.450 374.800,267.000 374.800 C 267.550 374.800,268.000 374.620,268.000 374.400 C 268.000 374.180,268.431 374.000,268.957 374.000 C 269.484 374.000,270.023 373.718,270.155 373.372 C 270.309 372.971,270.669 372.831,271.151 372.984 C 271.617 373.132,271.990 373.002,272.128 372.643 C 272.266 372.284,272.666 372.144,273.176 372.278 C 273.645 372.400,274.000 372.301,274.000 372.047 C 274.000 371.801,274.540 371.600,275.200 371.600 C 275.860 371.600,276.400 371.420,276.400 371.200 C 276.400 370.980,276.651 370.800,276.957 370.800 C 277.264 370.800,277.617 370.533,277.742 370.207 C 277.872 369.869,278.235 369.715,278.585 369.850 C 278.923 369.979,279.200 369.886,279.200 369.643 C 279.200 369.399,279.560 369.200,280.000 369.200 C 280.440 369.200,280.800 369.020,280.800 368.800 C 280.800 368.580,281.160 368.400,281.600 368.400 C 282.040 368.400,282.400 368.220,282.400 368.000 C 282.400 367.780,282.760 367.600,283.200 367.600 C 283.640 367.600,284.000 367.420,284.000 367.200 C 284.000 366.980,284.341 366.800,284.757 366.800 C 285.174 366.800,285.617 366.533,285.742 366.207 C 285.867 365.880,286.223 365.711,286.533 365.830 C 286.843 365.949,287.203 365.769,287.333 365.430 C 287.470 365.074,287.829 364.913,288.185 365.050 C 288.587 365.204,288.800 365.054,288.800 364.616 C 288.800 364.128,289.017 364.015,289.600 364.200 C 290.183 364.385,290.400 364.272,290.400 363.784 C 290.400 363.284,290.634 363.172,291.321 363.344 C 291.962 363.505,292.413 363.336,292.809 362.788 C 293.121 362.354,293.588 362.000,293.846 362.000 C 294.103 362.000,294.422 361.719,294.554 361.375 C 294.686 361.031,294.969 360.857,295.183 360.989 C 295.396 361.121,295.937 360.863,296.385 360.415 C 296.833 359.967,297.451 359.600,297.757 359.600 C 298.064 359.600,298.417 359.333,298.542 359.007 C 298.674 358.663,299.034 358.515,299.397 358.654 C 299.768 358.797,300.324 358.549,300.759 358.047 C 301.163 357.581,301.608 357.200,301.747 357.200 C 301.886 357.200,302.360 356.840,302.800 356.400 C 303.240 355.960,303.870 355.600,304.200 355.600 C 304.530 355.600,304.800 355.338,304.800 355.018 C 304.800 354.671,305.359 354.331,306.186 354.176 C 307.045 354.015,307.664 353.628,307.813 353.158 C 307.956 352.707,308.422 352.400,308.963 352.400 C 309.546 352.400,310.036 352.039,310.331 351.391 C 310.615 350.769,311.236 350.293,311.950 350.150 C 312.647 350.011,313.285 349.532,313.550 348.950 C 313.815 348.368,314.453 347.889,315.150 347.750 C 315.847 347.611,316.485 347.132,316.750 346.550 C 317.006 345.987,317.654 345.488,318.296 345.358 C 318.903 345.235,319.850 344.586,320.400 343.916 C 322.403 341.476,324.493 339.600,325.209 339.600 C 325.644 339.600,326.808 338.412,332.000 332.674 C 333.430 331.093,335.366 329.170,336.303 328.400 C 339.868 325.468,342.074 323.170,341.860 322.611 C 341.664 322.102,342.379 321.341,345.066 319.200 C 345.480 318.870,345.998 318.061,346.218 317.403 C 346.438 316.744,347.192 315.844,347.893 315.403 C 348.711 314.888,349.175 314.270,349.185 313.681 C 349.195 313.087,349.625 312.522,350.404 312.081 C 351.199 311.632,351.573 311.133,351.504 310.614 C 351.435 310.096,351.843 309.551,352.699 309.014 C 353.572 308.467,353.944 307.963,353.831 307.477 C 353.721 307.002,353.996 306.603,354.631 306.313 C 355.253 306.030,355.600 305.538,355.600 304.939 C 355.600 304.426,355.960 303.782,356.400 303.507 C 356.840 303.232,357.200 302.847,357.200 302.651 C 357.200 302.454,357.581 301.963,358.047 301.559 C 358.547 301.126,358.796 300.568,358.655 300.200 C 358.496 299.786,358.751 299.423,359.414 299.121 C 360.125 298.797,360.344 298.455,360.178 297.931 C 360.032 297.470,360.179 297.106,360.572 296.955 C 360.918 296.823,361.200 296.503,361.200 296.246 C 361.200 295.988,361.560 295.517,361.999 295.201 C 362.499 294.841,362.713 294.357,362.572 293.910 C 362.432 293.472,362.587 293.103,362.972 292.955 C 363.318 292.823,363.600 292.464,363.600 292.157 C 363.600 291.851,363.780 291.600,364.000 291.600 C 364.220 291.600,364.400 291.280,364.400 290.888 C 364.400 290.497,364.754 289.921,365.188 289.609 C 365.736 289.213,365.905 288.762,365.744 288.121 C 365.572 287.434,365.684 287.200,366.184 287.200 C 366.672 287.200,366.785 286.983,366.600 286.400 C 366.417 285.823,366.528 285.600,367.000 285.600 C 367.472 285.600,367.583 285.377,367.400 284.800 C 367.215 284.217,367.328 284.000,367.816 284.000 C 368.254 284.000,368.404 283.787,368.250 283.385 C 368.113 283.029,368.274 282.670,368.630 282.533 C 368.969 282.403,369.149 282.043,369.030 281.733 C 368.911 281.423,369.091 281.063,369.430 280.933 C 369.769 280.803,369.949 280.443,369.830 280.133 C 369.711 279.823,369.886 279.465,370.219 279.337 C 370.599 279.191,370.735 278.826,370.584 278.351 C 370.431 277.869,370.571 277.509,370.972 277.355 C 371.318 277.223,371.600 276.774,371.600 276.357 C 371.600 275.941,371.780 275.600,372.000 275.600 C 372.220 275.600,372.400 275.150,372.400 274.600 C 372.400 274.050,372.592 273.600,372.827 273.600 C 373.072 273.600,373.146 273.259,372.999 272.798 C 372.830 272.265,372.955 271.915,373.372 271.755 C 373.718 271.623,374.000 271.174,374.000 270.757 C 374.000 270.341,374.201 270.000,374.447 270.000 C 374.701 270.000,374.800 269.645,374.678 269.176 C 374.546 268.671,374.683 268.266,375.031 268.133 C 375.344 268.013,375.600 267.484,375.600 266.957 C 375.600 266.431,375.800 266.000,376.043 266.000 C 376.318 266.000,376.390 265.615,376.234 264.991 C 376.053 264.270,376.163 263.912,376.620 263.737 C 377.065 263.566,377.187 263.201,377.020 262.537 C 376.853 261.872,376.975 261.508,377.422 261.336 C 377.820 261.184,377.988 260.796,377.863 260.320 C 377.746 259.872,377.899 259.460,378.231 259.333 C 378.544 259.213,378.800 258.594,378.800 257.957 C 378.800 257.321,378.980 256.800,379.200 256.800 C 379.420 256.800,379.600 256.260,379.600 255.600 C 379.600 254.940,379.783 254.400,380.006 254.400 C 380.230 254.400,380.369 253.829,380.316 253.130 C 380.261 252.406,380.430 251.790,380.710 251.697 C 380.979 251.607,381.200 250.918,381.200 250.167 C 381.200 249.415,381.403 248.800,381.650 248.800 C 381.935 248.800,382.013 248.367,381.863 247.615 C 381.703 246.816,381.830 246.227,382.253 245.804 C 382.651 245.406,382.793 244.826,382.640 244.217 C 382.490 243.620,382.626 243.031,383.000 242.658 C 383.337 242.320,383.600 241.343,383.600 240.429 C 383.600 239.480,383.790 238.800,384.054 238.800 C 384.362 238.800,384.430 238.224,384.264 237.014 C 384.071 235.606,384.157 235.152,384.671 234.864 C 385.191 234.573,385.271 234.123,385.067 232.635 C 384.861 231.132,384.936 230.723,385.456 230.523 C 385.988 230.319,386.058 229.868,385.859 227.958 C 385.675 226.197,385.759 225.498,386.209 225.049 C 386.653 224.604,386.776 223.647,386.700 221.214 C 386.627 218.838,386.744 217.882,387.139 217.638 C 387.556 217.380,387.647 216.224,387.540 212.552 C 387.327 205.305,387.540 199.689,388.000 200.400 C 388.274 200.824,388.388 200.295,388.388 198.600 C 388.388 197.168,388.253 196.412,388.055 196.725 C 387.568 197.493,387.224 190.940,387.494 186.037 C 387.650 183.205,387.590 181.959,387.307 182.134 C 386.712 182.501,386.451 180.671,386.703 177.898 C 386.865 176.113,386.779 175.434,386.359 175.174 C 385.957 174.926,385.830 174.131,385.906 172.342 C 385.978 170.668,385.847 169.753,385.506 169.542 C 385.184 169.342,385.031 168.482,385.086 167.172 C 385.142 165.841,384.975 164.917,384.612 164.555 C 384.234 164.177,384.128 163.521,384.286 162.547 C 384.467 161.431,384.364 161.012,383.836 160.716 C 383.326 160.431,383.216 160.036,383.407 159.169 C 383.583 158.369,383.465 157.808,383.031 157.374 C 382.629 156.972,382.487 156.393,382.640 155.783 C 382.793 155.174,382.651 154.594,382.253 154.196 C 381.830 153.773,381.703 153.184,381.863 152.385 C 382.013 151.633,381.935 151.200,381.650 151.200 C 381.403 151.200,381.200 150.589,381.200 149.843 C 381.200 149.012,380.970 148.397,380.607 148.258 C 380.182 148.095,380.083 147.687,380.257 146.815 C 380.412 146.038,380.338 145.600,380.050 145.600 C 379.803 145.600,379.600 145.060,379.600 144.400 C 379.600 143.740,379.420 143.200,379.200 143.200 C 378.980 143.200,378.800 142.679,378.800 142.043 C 378.800 141.406,378.544 140.787,378.231 140.667 C 377.869 140.529,377.745 140.130,377.891 139.574 C 378.040 139.004,377.896 138.573,377.476 138.339 C 377.099 138.127,376.934 137.715,377.078 137.340 C 377.225 136.958,377.051 136.548,376.644 136.321 C 376.205 136.075,376.051 135.669,376.209 135.170 C 376.347 134.738,376.266 134.400,376.027 134.400 C 375.792 134.400,375.600 133.879,375.600 133.243 C 375.600 132.606,375.344 131.987,375.031 131.867 C 374.683 131.734,374.546 131.329,374.678 130.824 C 374.800 130.355,374.701 130.000,374.447 130.000 C 374.201 130.000,374.000 129.550,374.000 129.000 C 374.000 128.359,373.775 128.000,373.373 128.000 C 372.928 128.000,372.820 127.768,373.000 127.200 C 373.146 126.741,373.072 126.400,372.827 126.400 C 372.592 126.400,372.400 125.969,372.400 125.443 C 372.400 124.916,372.118 124.377,371.772 124.245 C 371.355 124.085,371.230 123.735,371.399 123.202 C 371.583 122.623,371.472 122.400,371.000 122.400 C 370.542 122.400,370.418 122.175,370.585 121.647 C 370.735 121.175,370.599 120.808,370.219 120.663 C 369.871 120.529,369.714 120.168,369.850 119.815 C 369.979 119.477,369.886 119.200,369.643 119.200 C 369.399 119.200,369.200 118.859,369.200 118.443 C 369.200 118.026,368.933 117.583,368.607 117.458 C 368.280 117.333,368.111 116.977,368.230 116.667 C 368.349 116.357,368.169 115.997,367.830 115.867 C 367.491 115.737,367.311 115.377,367.430 115.067 C 367.549 114.757,367.369 114.397,367.030 114.267 C 366.691 114.137,366.511 113.777,366.630 113.467 C 366.749 113.157,366.569 112.797,366.230 112.667 C 365.867 112.528,365.713 112.172,365.854 111.803 C 365.997 111.432,365.749 110.876,365.247 110.441 C 364.781 110.037,364.400 109.522,364.400 109.296 C 364.400 109.070,364.133 108.783,363.807 108.658 C 363.469 108.528,363.315 108.165,363.450 107.815 C 363.606 107.408,363.452 107.200,362.996 107.200 C 362.490 107.200,362.366 106.974,362.530 106.348 C 362.752 105.498,361.917 104.216,361.448 104.686 C 361.311 104.822,361.200 104.493,361.200 103.955 C 361.200 103.417,360.840 102.717,360.400 102.400 C 359.960 102.083,359.600 101.612,359.600 101.354 C 359.600 101.097,359.318 100.777,358.972 100.645 C 358.579 100.494,358.432 100.130,358.578 99.669 C 358.744 99.148,358.528 98.804,357.837 98.490 C 357.167 98.184,356.924 97.813,357.058 97.299 C 357.195 96.776,356.939 96.410,356.201 96.073 C 355.412 95.714,355.210 95.397,355.397 94.810 C 355.589 94.205,355.415 93.969,354.633 93.773 C 353.886 93.585,353.557 93.175,353.375 92.207 C 353.214 91.350,352.792 90.743,352.155 90.452 C 351.568 90.185,351.090 89.549,350.950 88.850 C 350.811 88.153,350.332 87.515,349.750 87.250 C 349.173 86.987,348.689 86.347,348.553 85.665 C 348.427 85.037,347.952 84.270,347.496 83.961 C 346.007 82.952,345.200 82.013,345.200 81.288 C 345.200 80.897,344.798 80.312,344.306 79.988 C 342.640 78.892,339.600 75.547,339.600 74.810 C 339.600 74.208,333.992 68.677,332.471 67.778 C 331.772 67.365,331.200 66.805,331.200 66.533 C 331.200 65.793,325.739 60.400,324.989 60.400 C 324.348 60.400,323.159 59.290,321.200 56.863 C 320.650 56.182,319.958 55.619,319.662 55.612 C 318.656 55.590,316.852 54.261,316.631 53.380 C 316.485 52.801,315.998 52.420,315.201 52.260 C 314.437 52.107,313.822 51.646,313.531 51.009 C 313.227 50.341,312.749 50.000,312.117 50.000 C 311.471 50.000,310.943 49.608,310.481 48.786 C 310.015 47.956,309.572 47.630,309.077 47.755 C 308.595 47.876,308.207 47.614,307.913 46.969 C 307.670 46.436,307.180 46.000,306.824 46.000 C 306.468 46.000,305.917 45.640,305.600 45.200 C 305.283 44.760,304.743 44.400,304.400 44.400 C 304.057 44.400,303.517 44.040,303.200 43.600 C 302.883 43.160,302.225 42.800,301.739 42.800 C 301.192 42.800,300.752 42.480,300.588 41.963 C 300.402 41.375,300.090 41.188,299.537 41.332 C 299.072 41.454,298.662 41.306,298.533 40.969 C 298.413 40.656,298.098 40.400,297.833 40.400 C 297.568 40.400,296.964 40.040,296.492 39.600 C 296.020 39.160,295.356 38.800,295.017 38.800 C 294.678 38.800,294.400 38.620,294.400 38.400 C 294.400 38.180,294.170 38.000,293.888 38.000 C 293.607 38.000,293.121 37.646,292.809 37.212 C 292.413 36.664,291.962 36.495,291.321 36.656 C 290.628 36.830,290.400 36.717,290.400 36.201 C 290.400 35.747,290.191 35.595,289.785 35.750 C 289.435 35.885,289.072 35.731,288.942 35.393 C 288.817 35.067,288.374 34.800,287.957 34.800 C 287.541 34.800,287.200 34.620,287.200 34.400 C 287.200 34.180,286.840 34.000,286.400 34.000 C 285.960 34.000,285.600 33.820,285.600 33.600 C 285.600 33.380,285.240 33.200,284.800 33.200 C 284.360 33.200,284.000 33.001,284.000 32.757 C 284.000 32.514,283.723 32.421,283.385 32.550 C 283.029 32.687,282.670 32.526,282.533 32.170 C 282.403 31.831,282.043 31.651,281.733 31.770 C 281.423 31.889,281.065 31.714,280.937 31.381 C 280.792 31.001,280.425 30.865,279.953 31.015 C 279.425 31.182,279.200 31.058,279.200 30.600 C 279.200 30.128,278.977 30.017,278.398 30.201 C 277.865 30.370,277.515 30.245,277.355 29.828 C 277.223 29.482,276.774 29.200,276.357 29.200 C 275.941 29.200,275.600 29.020,275.600 28.800 C 275.600 28.580,275.240 28.400,274.800 28.400 C 274.360 28.400,274.000 28.200,274.000 27.957 C 274.000 27.683,273.616 27.610,273.000 27.764 C 272.262 27.949,272.000 27.856,272.000 27.408 C 272.000 27.073,271.730 26.800,271.400 26.800 C 271.070 26.800,270.800 26.620,270.800 26.400 C 270.800 26.180,270.170 26.000,269.400 26.000 C 268.630 26.000,268.000 25.820,268.000 25.600 C 268.000 25.380,267.550 25.200,267.000 25.200 C 266.450 25.200,266.000 25.000,266.000 24.757 C 266.000 24.482,265.615 24.410,264.991 24.566 C 264.270 24.747,263.912 24.637,263.737 24.180 C 263.566 23.735,263.201 23.613,262.537 23.780 C 261.872 23.947,261.508 23.825,261.336 23.378 C 261.187 22.989,260.795 22.813,260.344 22.931 C 259.918 23.042,259.449 22.858,259.250 22.503 C 259.026 22.103,258.589 21.962,258.026 22.109 C 257.453 22.259,257.071 22.129,256.918 21.730 C 256.752 21.298,256.350 21.190,255.527 21.355 C 254.713 21.517,254.302 21.410,254.142 20.993 C 254.003 20.630,253.388 20.400,252.557 20.400 C 251.811 20.400,251.200 20.198,251.200 19.950 C 251.200 19.664,250.766 19.587,250.013 19.737 C 249.156 19.909,248.725 19.795,248.463 19.327 C 248.197 18.852,247.773 18.745,246.866 18.927 C 246.038 19.092,245.438 18.980,245.044 18.587 C 244.721 18.264,243.814 18.000,243.029 18.000 C 242.232 18.000,241.600 17.800,241.600 17.547 C 241.600 17.250,241.049 17.169,239.992 17.310 C 238.852 17.463,238.205 17.348,237.771 16.914 C 237.351 16.494,236.727 16.372,235.782 16.525 C 234.831 16.680,234.214 16.557,233.784 16.126 C 233.331 15.674,232.737 15.572,231.609 15.752 C 230.494 15.930,229.887 15.830,229.450 15.393 C 228.999 14.941,228.119 14.814,226.008 14.893 C 224.079 14.966,223.074 14.841,222.864 14.502 C 222.644 14.146,221.375 14.032,218.412 14.102 C 215.382 14.174,214.224 14.066,214.101 13.700 C 213.857 12.972,186.543 12.972,186.299 13.700 M300.166 148.900 C 303.961 162.076,299.554 179.242,290.278 187.421 C 287.048 190.269,281.630 193.235,274.600 196.004 C 272.840 196.697,270.860 197.500,270.200 197.788 C 269.540 198.075,267.470 198.888,265.600 199.593 C 263.730 200.299,261.840 201.022,261.400 201.199 C 260.661 201.497,259.757 201.831,253.900 203.965 C 241.633 208.436,239.229 209.418,238.722 210.166 C 238.239 210.878,238.657 210.890,242.071 210.263 C 243.902 209.926,247.560 209.269,250.200 208.804 C 252.840 208.339,256.440 207.618,258.200 207.203 C 259.960 206.787,262.390 206.230,263.600 205.964 C 266.607 205.303,273.682 203.326,276.600 202.330 C 279.398 201.376,284.528 198.693,287.262 196.753 C 292.017 193.380,286.137 207.778,280.244 213.937 C 277.179 217.140,271.995 220.385,267.907 221.659 C 261.336 223.707,250.630 225.622,242.400 226.222 C 237.933 226.548,236.800 226.780,236.800 227.368 C 236.800 227.661,237.385 228.031,238.100 228.191 C 241.797 229.019,242.931 229.228,246.770 229.790 C 253.166 230.726,259.912 230.405,263.300 229.004 C 265.276 228.187,262.239 233.472,258.788 236.855 C 252.903 242.625,246.772 243.686,235.200 240.935 C 232.104 240.199,229.486 239.367,227.682 238.546 C 225.170 237.402,225.414 238.294,228.400 241.173 C 232.316 244.950,234.888 246.658,237.797 247.416 C 241.014 248.254,241.165 248.652,238.683 249.742 C 230.838 253.190,225.007 252.344,219.517 246.961 C 217.899 245.375,213.600 238.988,213.600 238.171 C 213.600 238.059,213.217 237.569,212.750 237.083 L 211.899 236.200 212.111 237.200 C 212.227 237.750,212.801 240.000,213.387 242.200 C 215.014 248.313,214.608 258.368,212.807 256.567 C 212.266 256.026,209.119 246.676,207.971 242.200 C 207.172 239.081,206.327 235.643,205.981 234.100 C 205.161 230.442,204.801 228.872,204.016 225.529 C 201.631 215.379,204.628 207.279,213.400 200.172 C 215.248 198.674,216.151 198.089,220.000 195.892 C 223.131 194.106,235.973 188.000,236.600 188.000 C 236.697 188.000,237.817 187.531,239.088 186.957 C 240.360 186.383,241.940 185.684,242.600 185.404 C 243.773 184.906,245.174 184.307,248.000 183.094 C 248.770 182.763,250.253 182.112,251.296 181.647 C 252.338 181.181,253.279 180.800,253.386 180.800 C 253.493 180.800,254.759 180.260,256.200 179.600 C 257.641 178.940,258.905 178.400,259.008 178.400 C 259.484 178.400,272.278 172.227,274.600 170.878 C 278.878 168.391,280.100 167.610,282.651 165.736 C 284.219 164.584,285.749 163.407,286.051 163.121 C 286.353 162.834,287.320 161.983,288.200 161.229 C 290.864 158.947,295.591 153.564,297.446 150.700 C 299.330 147.791,299.764 147.504,300.166 148.900 M102.550 150.769 C 104.988 154.929,111.265 161.475,116.000 164.796 C 116.770 165.336,117.749 166.098,118.175 166.489 C 118.602 166.880,119.109 167.200,119.303 167.200 C 119.497 167.200,120.409 167.718,121.330 168.352 C 124.101 170.258,129.783 173.268,135.000 175.592 C 136.100 176.082,138.080 176.984,139.400 177.595 C 140.720 178.207,143.600 179.466,145.800 180.393 C 148.000 181.320,150.750 182.511,151.912 183.039 C 153.073 183.568,154.110 184.000,154.216 184.000 C 154.322 184.000,155.262 184.381,156.304 184.847 C 160.799 186.855,161.602 187.200,161.784 187.200 C 162.084 187.200,169.297 190.480,174.600 193.028 C 191.984 201.381,199.028 211.380,196.418 224.000 C 195.630 227.814,192.106 242.495,191.617 244.000 C 191.439 244.550,191.066 245.810,190.790 246.800 C 187.490 258.601,185.872 259.875,185.827 250.707 C 185.805 246.335,185.964 244.801,186.731 242.000 C 188.607 235.148,188.502 234.079,186.366 238.294 C 180.062 250.733,171.907 254.731,162.380 250.054 C 159.650 248.714,159.489 248.158,161.674 247.620 C 164.544 246.915,166.672 245.619,170.423 242.293 C 175.045 238.195,175.203 237.348,171.000 239.186 C 170.120 239.571,167.870 240.263,166.000 240.723 C 153.613 243.772,147.460 242.811,141.055 236.828 C 138.932 234.845,136.149 231.011,135.934 229.772 C 135.782 228.899,135.700 228.899,140.000 229.782 C 143.455 230.493,148.176 230.577,151.967 229.997 C 160.666 228.667,163.284 228.057,163.073 227.412 C 162.935 226.991,161.722 226.769,155.400 226.007 C 150.218 225.382,142.427 224.183,139.800 223.607 C 134.838 222.518,132.974 222.006,131.000 221.188 C 121.180 217.117,116.354 212.222,112.725 202.652 C 110.287 196.223,110.464 195.705,114.330 197.951 C 119.403 200.897,122.269 202.087,129.800 204.373 C 135.721 206.170,152.170 209.525,160.400 210.614 L 161.800 210.799 160.699 209.921 C 159.579 209.027,153.270 206.347,148.200 204.610 C 145.616 203.724,143.978 203.127,135.600 200.013 C 133.950 199.399,130.890 198.229,128.800 197.412 C 126.710 196.595,124.640 195.788,124.200 195.618 C 112.402 191.057,105.528 184.786,101.159 174.600 C 99.231 170.105,98.125 161.383,98.769 155.751 C 99.684 147.750,100.303 146.935,102.550 150.769 " stroke="none" fill="#040404" fill-rule="evenodd"></path></g></svg>